<svg width="60" height="60" viewBox="0 0 60 60" fill="none" xmlns="http://www.w3.org/2000/svg">
<rect width="60" height="60" rx="20" fill="#D9E0FF"/>
<path d="M18 27V36M42 27V36M22.5 25.5H37.5M22.5 25.5V37.5C22.5 37.8978 22.658 38.2794 22.9393 38.5607C23.2206 38.842 23.6022 39 24 39H36C36.3978 39 36.7794 38.842 37.0607 38.5607C37.342 38.2794 37.5 37.8978 37.5 37.5V25.5M22.5 25.5C22.5 23.5109 23.2902 21.6032 24.6967 20.1967C26.1032 18.7902 28.0109 18 30 18C31.9891 18 33.8968 18.7902 35.3033 20.1967C36.7098 21.6032 37.5 23.5109 37.5 25.5M24 16.5L25.5 19.5M36 16.5L34.5 19.5M25.5 39V43.5M34.5 39V43.5" stroke="#061244" stroke-width="2" stroke-linecap="round" stroke-linejoin="round"/>
</svg>
