<svg width="60" height="60" viewBox="0 0 60 60" fill="none" xmlns="http://www.w3.org/2000/svg">
<rect width="60" height="60" rx="20" fill="#D9E0FF"/>
<path d="M25.5 22.5C21 22.5 19.5 27 19.5 30.75C19.5 35.25 22.5 42 25.5 42C27.132 41.931 28.0185 41.25 30 41.25C31.968 41.25 32.25 42 34.5 42C36.75 42 40.5 37.5 40.5 34.5C40.458 34.485 36.792 33.8955 36.75 30C36.7215 26.745 40.374 25.569 40.5 25.5C38.9655 23.262 36.0735 22.5555 35.25 22.5C33.1005 22.3335 31.005 24 30 24C28.98 24 27.15 22.5 25.5 22.5Z" stroke="#061244" stroke-width="2" stroke-linecap="round" stroke-linejoin="round"/>
<path d="M30 18C30.7956 18 31.5587 17.6839 32.1213 17.1213C32.6839 16.5587 33 15.7956 33 15C32.2044 15 31.4413 15.3161 30.8787 15.8787C30.3161 16.4413 30 17.2044 30 18Z" stroke="#061244" stroke-width="2" stroke-linecap="round" stroke-linejoin="round"/>
</svg>
