<svg width="60" height="60" viewBox="0 0 60 60" fill="none" xmlns="http://www.w3.org/2000/svg">
<rect width="60" height="60" rx="20" fill="#E5F0FF"/>
<path d="M42 28.5C41.6332 25.8604 40.4086 23.4145 38.515 21.5393C36.6213 19.664 34.1636 18.4634 31.5205 18.1224C28.8774 17.7813 26.1954 18.3188 23.8878 19.6519C21.5802 20.9851 19.7749 23.04 18.75 25.5M18 19.5V25.5H24M18 31.5C18.43 34.6024 20.0423 37.4186 22.5 39.36M28.5 34.5H31.5C31.8978 34.5 32.2794 34.6581 32.5607 34.9394C32.842 35.2207 33 35.6022 33 36V37.5C33 37.8979 32.842 38.2794 32.5607 38.5607C32.2794 38.842 31.8978 39 31.5 39H30C29.6022 39 29.2206 39.1581 28.9393 39.4394C28.658 39.7207 28.5 40.1022 28.5 40.5V42C28.5 42.3979 28.658 42.7794 28.9393 43.0607C29.2206 43.342 29.6022 43.5 30 43.5H33M37.5 34.5V37.5C37.5 37.8979 37.658 38.2794 37.9393 38.5607C38.2206 38.842 38.6022 39 39 39H40.5M42 34.5V43.5" stroke="#2F80ED" stroke-width="2" stroke-linecap="round" stroke-linejoin="round"/>
</svg>
