<svg width="60" height="60" viewBox="0 0 60 60" fill="none" xmlns="http://www.w3.org/2000/svg">
<rect width="60" height="60" rx="20" fill="#D9E0FF"/>
<path d="M33 22.5H42M37.5 18V27M18 19.5C18 19.1022 18.158 18.7206 18.4393 18.4393C18.7206 18.158 19.1022 18 19.5 18H25.5C25.8978 18 26.2794 18.158 26.5607 18.4393C26.842 18.7206 27 19.1022 27 19.5V25.5C27 25.8978 26.842 26.2794 26.5607 26.5607C26.2794 26.842 25.8978 27 25.5 27H19.5C19.1022 27 18.7206 26.842 18.4393 26.5607C18.158 26.2794 18 25.8978 18 25.5V19.5ZM18 34.5C18 34.1022 18.158 33.7206 18.4393 33.4393C18.7206 33.158 19.1022 33 19.5 33H25.5C25.8978 33 26.2794 33.158 26.5607 33.4393C26.842 33.7206 27 34.1022 27 34.5V40.5C27 40.8978 26.842 41.2794 26.5607 41.5607C26.2794 41.842 25.8978 42 25.5 42H19.5C19.1022 42 18.7206 41.842 18.4393 41.5607C18.158 41.2794 18 40.8978 18 40.5V34.5ZM33 34.5C33 34.1022 33.158 33.7206 33.4393 33.4393C33.7206 33.158 34.1022 33 34.5 33H40.5C40.8978 33 41.2794 33.158 41.5607 33.4393C41.842 33.7206 42 34.1022 42 34.5V40.5C42 40.8978 41.842 41.2794 41.5607 41.5607C41.2794 41.842 40.8978 42 40.5 42H34.5C34.1022 42 33.7206 41.842 33.4393 41.5607C33.158 41.2794 33 40.8978 33 40.5V34.5Z" stroke="#061244" stroke-width="2" stroke-linecap="round" stroke-linejoin="round"/>
</svg>
