<svg width="60" height="60" viewBox="0 0 60 60" fill="none" xmlns="http://www.w3.org/2000/svg">
<rect width="60" height="60" rx="20" fill="#FFE5E5"/>
<path d="M21 37.5C21.7956 37.5 22.5587 37.8161 23.1213 38.3787C23.6839 38.9413 24 39.7044 24 40.5C24 41.2956 23.6839 42.0587 23.1213 42.6213C22.5587 43.1839 21.7956 43.5 21 43.5C20.2044 43.5 19.4413 43.1839 18.8787 42.6213C18.3161 42.0587 18 41.2956 18 40.5C18 39.7044 18.3161 38.9413 18.8787 38.3787C19.4413 37.8161 20.2044 37.5 21 37.5ZM21 37.5H37.5M21 37.5V16.5H18M37.5 37.5C38.2956 37.5 39.0587 37.8161 39.6213 38.3787C40.1839 38.9413 40.5 39.7044 40.5 40.5C40.5 41.2956 40.1839 42.0587 39.6213 42.6213C39.0587 43.1839 38.2956 43.5 37.5 43.5C36.7044 43.5 35.9413 43.1839 35.3787 42.6213C34.8161 42.0587 34.5 41.2956 34.5 40.5C34.5 39.7044 34.8161 38.9413 35.3787 38.3787C35.9413 37.8161 36.7044 37.5 37.5 37.5ZM21 19.5L30 20.1435M40.707 30.003L40.4925 31.503H20.9925M34.5 21H43.5M39 16.5V25.5" stroke="#621010" stroke-width="2" stroke-linecap="round" stroke-linejoin="round"/>
</svg>
