<svg width="60" height="60" viewBox="0 0 60 60" fill="none" xmlns="http://www.w3.org/2000/svg">
<rect width="60" height="60" rx="20" fill="#FFE5E5"/>
<path d="M25.5 19.5H22.5C21.7044 19.5 20.9413 19.8161 20.3787 20.3787C19.8161 20.9413 19.5 21.7044 19.5 22.5V40.5C19.5 41.2956 19.8161 42.0587 20.3787 42.6213C20.9413 43.1839 21.7044 43.5 22.5 43.5H37.5C38.2956 43.5 39.0587 43.1839 39.6213 42.6213C40.1839 42.0587 40.5 41.2956 40.5 40.5V22.5C40.5 21.7044 40.1839 20.9413 39.6213 20.3787C39.0587 19.8161 38.2956 19.5 37.5 19.5H34.5M25.5 19.5C25.5 18.7044 25.8161 17.9413 26.3787 17.3787C26.9413 16.8161 27.7044 16.5 28.5 16.5H31.5C32.2956 16.5 33.0587 16.8161 33.6213 17.3787C34.1839 17.9413 34.5 18.7044 34.5 19.5M25.5 19.5C25.5 20.2956 25.8161 21.0587 26.3787 21.6213C26.9413 22.1839 27.7044 22.5 28.5 22.5H31.5C32.2956 22.5 33.0587 22.1839 33.6213 21.6213C34.1839 21.0587 34.5 20.2956 34.5 19.5M25.5 37.5V30M30 37.5V36M34.5 37.5V33" stroke="#621010" stroke-width="2" stroke-linecap="round" stroke-linejoin="round"/>
</svg>
