<svg width="60" height="60" viewBox="0 0 60 60" fill="none" xmlns="http://www.w3.org/2000/svg">
<rect width="60" height="60" rx="20" fill="#FFE5E5"/>
<path d="M30 22.5C29.2044 22.5 28.4413 22.1839 27.8787 21.6213C27.3161 21.0587 27 20.2956 27 19.5C27 18.7044 27.3161 17.9413 27.8787 17.3787C28.4413 16.8161 29.2044 16.5 30 16.5C30.7956 16.5 31.5587 16.8161 32.1213 17.3787C32.6839 17.9413 33 18.7044 33 19.5C33 20.2956 32.6839 21.0587 32.1213 21.6213C31.5587 22.1839 30.7956 22.5 30 22.5ZM30 22.5V28.5M30 28.5C31.1935 28.5 32.3381 28.9741 33.182 29.818C34.0259 30.6619 34.5 31.8065 34.5 33C34.5 34.1935 34.0259 35.3381 33.182 36.182C32.3381 37.0259 31.1935 37.5 30 37.5C28.8065 37.5 27.6619 37.0259 26.818 36.182C25.9741 35.3381 25.5 34.1935 25.5 33C25.5 31.8065 25.9741 30.6619 26.818 29.818C27.6619 28.9741 28.8065 28.5 30 28.5ZM22.05 38.7L26.25 35.7M37.95 38.7L33.75 35.7M16.5 40.5C16.5 41.2956 16.8161 42.0587 17.3787 42.6213C17.9413 43.1839 18.7044 43.5 19.5 43.5C20.2956 43.5 21.0587 43.1839 21.6213 42.6213C22.1839 42.0587 22.5 41.2956 22.5 40.5C22.5 39.7044 22.1839 38.9413 21.6213 38.3787C21.0587 37.8161 20.2956 37.5 19.5 37.5C18.7044 37.5 17.9413 37.8161 17.3787 38.3787C16.8161 38.9413 16.5 39.7044 16.5 40.5ZM37.5 40.5C37.5 41.2956 37.8161 42.0587 38.3787 42.6213C38.9413 43.1839 39.7044 43.5 40.5 43.5C41.2956 43.5 42.0587 43.1839 42.6213 42.6213C43.1839 42.0587 43.5 41.2956 43.5 40.5C43.5 39.7044 43.1839 38.9413 42.6213 38.3787C42.0587 37.8161 41.2956 37.5 40.5 37.5C39.7044 37.5 38.9413 37.8161 38.3787 38.3787C37.8161 38.9413 37.5 39.7044 37.5 40.5Z" stroke="#621010" stroke-width="2" stroke-linecap="round" stroke-linejoin="round"/>
</svg>
