<svg width="60" height="60" viewBox="0 0 60 60" fill="none" xmlns="http://www.w3.org/2000/svg">
<rect width="60" height="60" rx="20" fill="#FFE5E5"/>
<path d="M28.5 40.5H19.5C18.7044 40.5 17.9413 40.1839 17.3787 39.6213C16.8161 39.0587 16.5 38.2956 16.5 37.5V22.5M16.5 22.5C16.5 21.7044 16.8161 20.9413 17.3787 20.3787C17.9413 19.8161 18.7044 19.5 19.5 19.5H40.5C41.2956 19.5 42.0587 19.8161 42.6213 20.3787C43.1839 20.9413 43.5 21.7044 43.5 22.5M16.5 22.5L30 31.5L43.5 22.5M43.5 22.5V29.25M42.3 42.3L45 45M34.5 39C34.5 40.1935 34.9741 41.3381 35.818 42.182C36.6619 43.0259 37.8065 43.5 39 43.5C40.1935 43.5 41.3381 43.0259 42.182 42.182C43.0259 41.3381 43.5 40.1935 43.5 39C43.5 37.8065 43.0259 36.6619 42.182 35.818C41.3381 34.9741 40.1935 34.5 39 34.5C37.8065 34.5 36.6619 34.9741 35.818 35.818C34.9741 36.6619 34.5 37.8065 34.5 39Z" stroke="#621010" stroke-width="2" stroke-linecap="round" stroke-linejoin="round"/>
</svg>
