<svg width="31" height="29" viewBox="0 0 31 29" fill="none" xmlns="http://www.w3.org/2000/svg">
<path d="M16.5 14.5V8.5C16.5 8.10218 16.658 7.72065 16.9393 7.43934C17.2206 7.15804 17.6022 7 18 7H27C27.3978 7 27.7794 7.15804 28.0607 7.43934C28.342 7.72065 28.5 8.10218 28.5 8.5V12.25M24 7V2.5C24 2.10218 23.842 1.72064 23.5607 1.43934C23.2794 1.15804 22.8978 1 22.5 1H3C2.60218 1 2.22064 1.15804 1.93934 1.43934C1.65804 1.72064 1.5 2.10218 1.5 2.5V20.5C1.5 20.8978 1.65804 21.2794 1.93934 21.5607C2.22064 21.842 2.60218 22 3 22H11.25M21 8.5H24M23.7 26.2255L20.442 27.9325C20.3453 27.9828 20.2365 28.0053 20.1278 27.9974C20.0191 27.9895 19.9148 27.9515 19.8264 27.8877C19.738 27.8239 19.6691 27.7368 19.6274 27.6361C19.5856 27.5354 19.5727 27.4251 19.59 27.3175L20.2125 23.701L17.577 21.1405C17.4983 21.0645 17.4426 20.9678 17.4163 20.8616C17.3899 20.7555 17.3939 20.644 17.4278 20.54C17.4618 20.436 17.5243 20.3436 17.6082 20.2734C17.6921 20.2032 17.7941 20.158 17.9025 20.143L21.5445 19.615L23.1735 16.3255C23.2222 16.2275 23.2973 16.1451 23.3903 16.0875C23.4833 16.0298 23.5906 15.9993 23.7 15.9993C23.8094 15.9993 23.9167 16.0298 24.0097 16.0875C24.1027 16.1451 24.1778 16.2275 24.2265 16.3255L25.8555 19.615L29.4975 20.143C29.6056 20.1586 29.7071 20.204 29.7907 20.2743C29.8742 20.3445 29.9365 20.4368 29.9703 20.5406C30.0042 20.6444 30.0083 20.7556 29.9823 20.8616C29.9563 20.9676 29.9011 21.0642 29.823 21.1405L27.1875 23.701L27.8085 27.316C27.8271 27.4238 27.8152 27.5347 27.774 27.636C27.7327 27.7374 27.664 27.8251 27.5754 27.8893C27.4868 27.9535 27.382 27.9916 27.2729 27.9992C27.1637 28.0069 27.0546 27.9838 26.958 27.9325L23.7 26.2255Z" stroke="#181725" stroke-width="2" stroke-linecap="round" stroke-linejoin="round"/>
</svg>
