<svg width="533" height="386" viewBox="0 0 533 386" fill="none" xmlns="http://www.w3.org/2000/svg">
<rect x="0.5" y="37.5" width="462" height="327" rx="7.5" fill="#F6F4F7"/>
<rect x="0.5" y="37.5" width="462" height="327" rx="7.5" stroke="#E0E0E0"/>
<rect x="37.5" y="116.5" width="112" height="111" fill="#FF5027" stroke="#FF5027"/>
<rect x="48.5" y="127.5" width="112" height="111" fill="white" stroke="#262437"/>
<rect x="37.5" y="253.5" width="35" height="35" fill="white" stroke="#262437"/>
<rect x="81.5" y="253.5" width="35" height="35" fill="white" stroke="#262437"/>
<rect x="125.5" y="253.5" width="35" height="35" fill="white" stroke="#262437"/>
<rect width="55" height="54" transform="translate(77 156)" fill="white"/>
<path d="M90.7498 194.25C91.9654 194.25 93.1312 194.724 93.9907 195.568C94.8503 196.412 95.3332 197.557 95.3332 198.75C95.3332 199.943 94.8503 201.088 93.9907 201.932C93.1312 202.776 91.9654 203.25 90.7498 203.25C89.5343 203.25 88.3685 202.776 87.5089 201.932C86.6494 201.088 86.1665 199.943 86.1665 198.75C86.1665 197.557 86.6494 196.412 87.5089 195.568C88.3685 194.724 89.5343 194.25 90.7498 194.25ZM90.7498 194.25H115.958M90.7498 194.25V162.75H86.1665M115.958 194.25C117.174 194.25 118.34 194.724 119.199 195.568C120.059 196.412 120.542 197.557 120.542 198.75C120.542 199.943 120.059 201.088 119.199 201.932C118.34 202.776 117.174 203.25 115.958 203.25C114.743 203.25 113.577 202.776 112.717 201.932C111.858 201.088 111.375 199.943 111.375 198.75C111.375 197.557 111.858 196.412 112.717 195.568C113.577 194.724 114.743 194.25 115.958 194.25ZM90.7498 167.25L122.833 169.5L120.542 185.25H90.7498" stroke="#FF5027" stroke-width="2" stroke-linecap="round" stroke-linejoin="round"/>
<rect x="187" y="122" width="216" height="9" fill="#D9D9D9"/>
<rect x="187" y="241" width="216" height="9" fill="#D9D9D9"/>
<rect x="187" y="137" width="168" height="9" fill="#D9D9D9"/>
<rect x="187" y="256" width="168" height="9" fill="#D9D9D9"/>
<rect x="187" y="151" width="168" height="9" fill="#D9D9D9"/>
<rect x="187" y="270" width="168" height="9" fill="#D9D9D9"/>
<rect x="187" y="167" width="168" height="9" fill="#D9D9D9"/>
<rect x="187" y="286" width="82" height="9" fill="#D9D9D9"/>
<rect x="187" y="203" width="82" height="16" rx="8" fill="#FF5027"/>
<rect x="187" y="182" width="23" height="6" rx="3" fill="#393559"/>
<rect x="213" y="182" width="23" height="6" rx="3" fill="#393559"/>
<rect x="239" y="182" width="11" height="6" rx="3" fill="#393559"/>
<path d="M0.5 45C0.5 40.8579 3.85786 37.5 8 37.5H455C459.142 37.5 462.5 40.8579 462.5 45V62.5H0.5V45Z" fill="white"/>
<path d="M0.5 45C0.5 40.8579 3.85786 37.5 8 37.5H455C459.142 37.5 462.5 40.8579 462.5 45V62.5H0.5V45Z" stroke="#E0E0E0"/>
<circle cx="15" cy="50" r="4" fill="#EB5757"/>
<circle cx="27" cy="50" r="4" fill="#F2994A"/>
<circle cx="39" cy="50" r="4" fill="#27AE60"/>
<g filter="url(#filter0_dd_2787_1360)">
<rect x="376" width="145" height="166" rx="8" fill="white"/>
<rect x="376.5" y="0.5" width="144" height="165" rx="7.5" stroke="#E0E0E0"/>
<path d="M396.213 31H394.924V23.3477H392.176V22.2109H398.961V23.3477H396.213V31ZM401.703 31.1172C401.117 31.1172 400.59 30.9844 400.121 30.7188C399.652 30.4531 399.283 30.0918 399.014 29.6348C398.744 29.1738 398.609 28.6523 398.609 28.0703C398.609 27.4922 398.744 26.9746 399.014 26.5176C399.283 26.0566 399.652 25.6934 400.121 25.4277C400.59 25.1582 401.117 25.0234 401.703 25.0234C402.293 25.0234 402.82 25.1582 403.285 25.4277C403.75 25.6934 404.115 26.0566 404.381 26.5176C404.65 26.9746 404.785 27.4922 404.785 28.0703C404.785 28.6523 404.65 29.1738 404.381 29.6348C404.115 30.0918 403.75 30.4531 403.285 30.7188C402.82 30.9844 402.293 31.1172 401.703 31.1172ZM401.697 30.0391C402.053 30.0391 402.369 29.9531 402.646 29.7812C402.928 29.6055 403.148 29.3711 403.309 29.0781C403.473 28.7812 403.555 28.4434 403.555 28.0645C403.555 27.6934 403.473 27.3613 403.309 27.0684C403.148 26.7715 402.928 26.5371 402.646 26.3652C402.369 26.1895 402.053 26.1016 401.697 26.1016C401.346 26.1016 401.029 26.1895 400.748 26.3652C400.467 26.5371 400.244 26.7715 400.08 27.0684C399.92 27.3613 399.84 27.6934 399.84 28.0645C399.84 28.4434 399.92 28.7812 400.08 29.0781C400.244 29.3711 400.467 29.6055 400.748 29.7812C401.029 29.9531 401.346 30.0391 401.697 30.0391ZM409.613 30.8535C409.203 31.0293 408.807 31.1172 408.424 31.1172C408.041 31.1172 407.705 31.0352 407.416 30.8711C407.131 30.707 406.906 30.4766 406.742 30.1797C406.582 29.8789 406.502 29.5332 406.502 29.1426V26.2129H405.477V25.1406H406.561V23.6758H407.703V25.1406H409.414V26.2129H407.703V28.9199C407.703 29.2637 407.795 29.5371 407.979 29.7402C408.166 29.9395 408.406 30.0391 408.699 30.0391C408.945 30.0391 409.189 29.9648 409.432 29.8164L409.613 30.8535ZM415.572 31H414.535L414.465 30.25C414.25 30.5234 413.979 30.7363 413.65 30.8887C413.322 31.041 412.959 31.1172 412.561 31.1172C412.143 31.1172 411.77 31.0352 411.441 30.8711C411.113 30.707 410.855 30.4824 410.668 30.1973C410.48 29.9121 410.387 29.5879 410.387 29.2246C410.387 28.8418 410.488 28.5059 410.691 28.2168C410.895 27.9238 411.172 27.6953 411.523 27.5312C411.875 27.3633 412.275 27.2793 412.725 27.2793C413.006 27.2793 413.291 27.3125 413.58 27.3789C413.873 27.4453 414.137 27.5391 414.371 27.6602V27.4434C414.371 27.1582 414.297 26.9141 414.148 26.7109C414.004 26.5039 413.805 26.3457 413.551 26.2363C413.301 26.127 413.023 26.0723 412.719 26.0723C412.449 26.0723 412.174 26.1191 411.893 26.2129C411.615 26.3066 411.354 26.4512 411.107 26.6465L410.744 25.668C411.1 25.457 411.469 25.2969 411.852 25.1875C412.238 25.0781 412.617 25.0234 412.988 25.0234C413.52 25.0234 413.977 25.1289 414.359 25.3398C414.746 25.5508 415.045 25.8516 415.256 26.2422C415.467 26.6289 415.572 27.0859 415.572 27.6133V31ZM412.795 30.0977C413.072 30.0977 413.328 30.041 413.562 29.9277C413.797 29.8105 413.986 29.6465 414.131 29.4355C414.279 29.2207 414.359 28.9707 414.371 28.6855V28.6035C414.172 28.4551 413.947 28.3398 413.697 28.2578C413.451 28.1719 413.199 28.1289 412.941 28.1289C412.547 28.1289 412.219 28.2227 411.957 28.4102C411.695 28.5977 411.564 28.8379 411.564 29.1309C411.564 29.3145 411.617 29.4805 411.723 29.6289C411.832 29.7734 411.979 29.8887 412.162 29.9746C412.35 30.0566 412.561 30.0977 412.795 30.0977ZM418.426 31H417.148V21.9766H418.426V31Z" fill="#0C082F"/>
<rect x="392" y="46" width="100" height="9" fill="#D9D9D9"/>
<rect x="392" y="65" width="56" height="9" fill="#D9D9D9"/>
<rect x="392" y="84" width="52" height="9" fill="#D9D9D9"/>
<rect x="454" y="84" width="52" height="9" fill="#D9D9D9"/>
<rect x="392" y="103" width="56" height="9" fill="#D9D9D9"/>
<rect x="392" y="122" width="88" height="22" rx="11" fill="#FF5027"/>
<path d="M416.332 135.898C415.922 136.297 415.436 136.609 414.873 136.836C414.311 137.062 413.699 137.176 413.039 137.176C412.371 137.176 411.756 137.062 411.193 136.836C410.631 136.605 410.141 136.285 409.723 135.875C409.309 135.461 408.986 134.977 408.756 134.422C408.525 133.867 408.41 133.262 408.41 132.605C408.41 131.949 408.525 131.344 408.756 130.789C408.986 130.23 409.309 129.746 409.723 129.336C410.141 128.926 410.631 128.607 411.193 128.381C411.756 128.15 412.371 128.035 413.039 128.035C413.695 128.035 414.303 128.148 414.861 128.375C415.424 128.602 415.91 128.916 416.32 129.318L415.061 130.584C414.814 130.283 414.514 130.047 414.158 129.875C413.807 129.699 413.424 129.611 413.01 129.611C412.615 129.611 412.25 129.688 411.914 129.84C411.582 129.988 411.291 130.199 411.041 130.473C410.791 130.742 410.598 131.059 410.461 131.422C410.324 131.785 410.256 132.178 410.256 132.6C410.256 133.029 410.324 133.426 410.461 133.789C410.598 134.152 410.791 134.471 411.041 134.744C411.291 135.014 411.582 135.225 411.914 135.377C412.25 135.525 412.615 135.6 413.01 135.6C413.424 135.6 413.807 135.514 414.158 135.342C414.51 135.166 414.809 134.928 415.055 134.627L416.332 135.898ZM417.504 137V128.211H419.186V131.832C419.607 131.293 420.213 131.023 421.002 131.023C421.74 131.023 422.316 131.252 422.73 131.709C423.145 132.162 423.352 132.797 423.352 133.613V137H421.67V134.059C421.67 133.57 421.562 133.193 421.348 132.928C421.133 132.662 420.832 132.529 420.445 132.529C420.051 132.529 419.742 132.664 419.52 132.934C419.297 133.203 419.186 133.578 419.186 134.059V137H417.504ZM430.061 136.344C429.334 136.859 428.539 137.117 427.676 137.117C427.035 137.117 426.459 136.98 425.947 136.707C425.439 136.43 425.037 136.055 424.74 135.582C424.447 135.109 424.301 134.576 424.301 133.982C424.301 133.416 424.434 132.91 424.699 132.465C424.969 132.02 425.334 131.668 425.795 131.41C426.256 131.152 426.779 131.023 427.365 131.023C427.971 131.023 428.504 131.166 428.965 131.451C429.426 131.732 429.785 132.127 430.043 132.635C430.301 133.139 430.43 133.723 430.43 134.387V134.574H426.111C426.182 134.805 426.297 135.008 426.457 135.184C426.617 135.355 426.816 135.492 427.055 135.594C427.293 135.695 427.566 135.746 427.875 135.746C428.473 135.746 429.029 135.553 429.545 135.166L430.061 136.344ZM426.035 133.719H428.877C428.846 133.465 428.766 133.242 428.637 133.051C428.512 132.855 428.346 132.703 428.139 132.594C427.936 132.484 427.707 132.43 427.453 132.43C427.195 132.43 426.965 132.486 426.762 132.6C426.562 132.713 426.4 132.865 426.275 133.057C426.15 133.248 426.07 133.469 426.035 133.719ZM436.688 136.068C436.402 136.396 436.053 136.654 435.639 136.842C435.225 137.025 434.77 137.117 434.273 137.117C433.672 137.117 433.133 136.986 432.656 136.725C432.184 136.459 431.811 136.096 431.537 135.635C431.268 135.174 431.133 134.652 431.133 134.07C431.133 133.484 431.268 132.963 431.537 132.506C431.811 132.045 432.184 131.684 432.656 131.422C433.133 131.156 433.672 131.023 434.273 131.023C434.766 131.023 435.219 131.115 435.633 131.299C436.047 131.482 436.396 131.736 436.682 132.061L435.691 133.098C435.539 132.922 435.346 132.785 435.111 132.688C434.881 132.586 434.639 132.535 434.385 132.535C434.092 132.535 433.83 132.602 433.6 132.734C433.369 132.863 433.188 133.043 433.055 133.273C432.922 133.5 432.855 133.762 432.855 134.059C432.855 134.359 432.922 134.627 433.055 134.861C433.188 135.096 433.369 135.279 433.6 135.412C433.83 135.541 434.092 135.605 434.385 135.605C434.639 135.605 434.883 135.557 435.117 135.459C435.352 135.357 435.543 135.219 435.691 135.043L436.688 136.068ZM439.4 137H437.719V128.211H439.4V133.613L439.975 132.922L441.662 131.141H443.766L441.287 133.748L444.059 137H441.885L440.133 134.803L439.4 135.471V137ZM447.58 137.117C446.979 137.117 446.439 136.986 445.963 136.725C445.486 136.459 445.111 136.098 444.838 135.641C444.568 135.18 444.434 134.656 444.434 134.07C444.434 133.488 444.568 132.969 444.838 132.512C445.111 132.051 445.486 131.688 445.963 131.422C446.439 131.156 446.979 131.023 447.58 131.023C448.182 131.023 448.717 131.156 449.186 131.422C449.658 131.688 450.029 132.051 450.299 132.512C450.572 132.969 450.709 133.488 450.709 134.07C450.709 134.656 450.572 135.18 450.299 135.641C450.029 136.098 449.658 136.459 449.186 136.725C448.717 136.986 448.182 137.117 447.58 137.117ZM447.574 135.611C447.844 135.611 448.084 135.545 448.295 135.412C448.51 135.275 448.678 135.092 448.799 134.861C448.924 134.627 448.986 134.359 448.986 134.059C448.986 133.77 448.924 133.51 448.799 133.279C448.678 133.049 448.51 132.867 448.295 132.734C448.084 132.598 447.844 132.529 447.574 132.529C447.301 132.529 447.057 132.598 446.842 132.734C446.631 132.867 446.463 133.049 446.338 133.279C446.217 133.51 446.156 133.77 446.156 134.059C446.156 134.359 446.217 134.627 446.338 134.861C446.463 135.092 446.631 135.275 446.842 135.412C447.057 135.545 447.301 135.611 447.574 135.611ZM457.512 137H456.146L456.088 136.062C455.881 136.406 455.605 136.668 455.262 136.848C454.922 137.027 454.523 137.117 454.066 137.117C453.316 137.117 452.729 136.887 452.303 136.426C451.877 135.965 451.664 135.332 451.664 134.527V131.141H453.346V134.141C453.346 134.598 453.453 134.957 453.668 135.219C453.887 135.477 454.184 135.605 454.559 135.605C454.949 135.605 455.258 135.471 455.484 135.201C455.715 134.928 455.83 134.559 455.83 134.094V131.141H457.512V137ZM463.037 136.848C462.588 137.027 462.152 137.117 461.73 137.117C461.293 137.117 460.906 137.025 460.57 136.842C460.238 136.654 459.979 136.395 459.791 136.062C459.604 135.727 459.51 135.34 459.51 134.902V132.641H458.484V131.141H459.598V129.676H461.191V131.141H462.814V132.641H461.191V134.598C461.191 134.918 461.279 135.168 461.455 135.348C461.631 135.523 461.85 135.611 462.111 135.611C462.35 135.611 462.582 135.537 462.809 135.389L463.037 136.848Z" fill="white"/>
</g>
<line x1="485" y1="291.5" x2="269" y2="291.5" stroke="#FF5027" stroke-dasharray="6 6"/>
<line x1="289.5" y1="18" x2="289.5" y2="122" stroke="#FF5027" stroke-dasharray="6 6"/>
<line x1="99.5" y1="19" x2="99.5" y2="116" stroke="#FF5027" stroke-dasharray="6 6"/>
<line x1="99.5" y1="289" x2="99.5" y2="386" stroke="#FF5027" stroke-dasharray="6 6"/>
<defs>
<filter id="filter0_dd_2787_1360" x="364" y="0" width="169" height="190" filterUnits="userSpaceOnUse" color-interpolation-filters="sRGB">
<feFlood flood-opacity="0" result="BackgroundImageFix"/>
<feColorMatrix in="SourceAlpha" type="matrix" values="0 0 0 0 0 0 0 0 0 0 0 0 0 0 0 0 0 0 127 0" result="hardAlpha"/>
<feMorphology radius="2" operator="erode" in="SourceAlpha" result="effect1_dropShadow_2787_1360"/>
<feOffset dy="4"/>
<feGaussianBlur stdDeviation="3"/>
<feComposite in2="hardAlpha" operator="out"/>
<feColorMatrix type="matrix" values="0 0 0 0 0 0 0 0 0 0 0 0 0 0 0 0 0 0 0.03 0"/>
<feBlend mode="normal" in2="BackgroundImageFix" result="effect1_dropShadow_2787_1360"/>
<feColorMatrix in="SourceAlpha" type="matrix" values="0 0 0 0 0 0 0 0 0 0 0 0 0 0 0 0 0 0 127 0" result="hardAlpha"/>
<feMorphology radius="4" operator="erode" in="SourceAlpha" result="effect2_dropShadow_2787_1360"/>
<feOffset dy="12"/>
<feGaussianBlur stdDeviation="8"/>
<feComposite in2="hardAlpha" operator="out"/>
<feColorMatrix type="matrix" values="0 0 0 0 0 0 0 0 0 0 0 0 0 0 0 0 0 0 0.08 0"/>
<feBlend mode="normal" in2="effect1_dropShadow_2787_1360" result="effect2_dropShadow_2787_1360"/>
<feBlend mode="normal" in="SourceGraphic" in2="effect2_dropShadow_2787_1360" result="shape"/>
</filter>
</defs>
</svg>
