<svg width="60" height="60" viewBox="0 0 60 60" fill="none" xmlns="http://www.w3.org/2000/svg">
<rect width="60" height="60" rx="20" fill="#D9FFEE"/>
<path d="M22.5 24H18C17.6022 24 17.2206 24.158 16.9393 24.4393C16.658 24.7206 16.5 25.1022 16.5 25.5V28.5C16.5 28.8978 16.658 29.2794 16.9393 29.5607C17.2206 29.842 17.6022 30 18 30H21C21.3978 30 21.7794 30.158 22.0607 30.4393C22.342 30.7206 22.5 31.1022 22.5 31.5V34.5C22.5 34.8978 22.342 35.2794 22.0607 35.5607C21.7794 35.842 21.3978 36 21 36H16.5M33 36H27V24H33M28.5 30H31.5M37.5 25.5C37.5 25.1022 37.658 24.7206 37.9393 24.4393C38.2206 24.158 38.6022 24 39 24H42C42.3978 24 42.7794 24.158 43.0607 24.4393C43.342 24.7206 43.5 25.1022 43.5 25.5V34.5C43.5 34.8978 43.342 35.2794 43.0607 35.5607C42.7794 35.842 42.3978 36 42 36H39C38.6022 36 38.2206 35.842 37.9393 35.5607C37.658 35.2794 37.5 34.8978 37.5 34.5V25.5Z" stroke="#0A6B40" stroke-width="2" stroke-linecap="round" stroke-linejoin="round"/>
</svg>
