<svg width="60" height="60" viewBox="0 0 60 60" fill="none" xmlns="http://www.w3.org/2000/svg">
<rect width="60" height="60" rx="20" fill="#D8E2E5"/>
<path d="M16.5 43.5L20.25 39.75M39.75 20.25L43.5 16.5M27 28.5L24 31.5M31.5 33L28.5 36M22.5 30L30 37.5L27.75 39.75C27.2605 40.2557 26.6753 40.6588 26.0284 40.9361C25.3815 41.2133 24.6859 41.359 23.9822 41.3647C23.2784 41.3704 22.5806 41.236 21.9293 40.9693C21.278 40.7027 20.6863 40.309 20.1886 39.8114C19.691 39.3137 19.2973 38.722 19.0306 38.0707C18.764 37.4194 18.6296 36.7216 18.6353 36.0178C18.641 35.3141 18.7867 34.6185 19.0639 33.9716C19.3411 33.3247 19.7443 32.7395 20.25 32.25L22.5 30ZM37.5 30L30 22.5L32.25 20.25C32.7395 19.7443 33.3247 19.3411 33.9716 19.0639C34.6185 18.7867 35.3141 18.641 36.0178 18.6353C36.7216 18.6296 37.4194 18.764 38.0707 19.0306C38.722 19.2973 39.3137 19.691 39.8114 20.1886C40.309 20.6863 40.7027 21.278 40.9693 21.9293C41.236 22.5806 41.3704 23.2784 41.3647 23.9822C41.359 24.6859 41.2133 25.3815 40.9361 26.0284C40.6588 26.6753 40.2557 27.2605 39.75 27.75L37.5 30Z" stroke="#181725" stroke-width="2" stroke-linecap="round" stroke-linejoin="round"/>
</svg>
