<svg width="60" height="60" viewBox="0 0 60 60" fill="none" xmlns="http://www.w3.org/2000/svg">
<rect width="60" height="60" rx="20" fill="#D8E2E5"/>
<path d="M22.5002 33C20.9391 33.8814 19.6767 35.2089 18.875 36.8124C18.0732 38.4159 17.7686 40.2223 18.0002 42C19.778 42.2316 21.5844 41.927 23.1879 41.1253C24.7914 40.3235 26.1189 39.0612 27.0002 37.5M18.0002 31.5C20.6749 31.8179 23.1648 33.0263 25.0694 34.9309C26.9739 36.8354 28.1824 39.3254 28.5002 42C29.8261 41.2356 30.9352 40.1457 31.7226 38.8334C32.51 37.5211 32.9497 36.0296 33.0002 34.5C35.5189 33.614 37.7183 32.001 39.3203 29.865C40.9222 27.729 41.8549 25.166 42.0002 22.5C42.0002 21.3065 41.5261 20.1619 40.6822 19.318C39.8383 18.4741 38.6937 18 37.5002 18C34.8342 18.1454 32.2712 19.078 30.1352 20.68C27.9993 22.282 26.3863 24.4813 25.5002 27C23.9706 27.0505 22.4792 27.4903 21.1668 28.2777C19.8545 29.0651 18.7646 30.1741 18.0002 31.5ZM33.0002 25.5C33.0002 25.8978 33.1583 26.2794 33.4396 26.5607C33.7209 26.842 34.1024 27 34.5002 27C34.8981 27 35.2796 26.842 35.5609 26.5607C35.8422 26.2794 36.0002 25.8978 36.0002 25.5C36.0002 25.1022 35.8422 24.7206 35.5609 24.4393C35.2796 24.158 34.8981 24 34.5002 24C34.1024 24 33.7209 24.158 33.4396 24.4393C33.1583 24.7206 33.0002 25.1022 33.0002 25.5Z" stroke="#181725" stroke-width="2" stroke-linecap="round" stroke-linejoin="round"/>
</svg>
