<svg width="60" height="60" viewBox="0 0 60 60" fill="none" xmlns="http://www.w3.org/2000/svg">
<rect width="60" height="60" rx="20" fill="#D8E2E5"/>
<path d="M19.5 36C20.2956 36 21.0587 36.3161 21.6213 36.8787C22.1839 37.4413 22.5 38.2044 22.5 39C22.5 39.7956 22.1839 40.5587 21.6213 41.1213C21.0587 41.6839 20.2956 42 19.5 42C18.7044 42 17.9413 41.6839 17.3787 41.1213C16.8161 40.5587 16.5 39.7956 16.5 39C16.5 38.2044 16.8161 37.4413 17.3787 36.8787C17.9413 36.3161 18.7044 36 19.5 36ZM19.5 36V28.5C19.5 26.5109 20.2902 24.6032 21.6967 23.1967C23.1032 21.7902 25.0109 21 27 21H31.5M40.5 24C39.7044 24 38.9413 23.6839 38.3787 23.1213C37.8161 22.5587 37.5 21.7956 37.5 21C37.5 20.2044 37.8161 19.4413 38.3787 18.8787C38.9413 18.3161 39.7044 18 40.5 18C41.2956 18 42.0587 18.3161 42.6213 18.8787C43.1839 19.4413 43.5 20.2044 43.5 21C43.5 21.7956 43.1839 22.5587 42.6213 23.1213C42.0587 23.6839 41.2956 24 40.5 24ZM40.5 24V31.5C40.5 33.4891 39.7098 35.3968 38.3033 36.8033C36.8968 38.2098 34.9891 39 33 39H28.5M28.5 39L33 34.5M28.5 39L33 43.5M31.5 21L27 16.5M31.5 21L27 25.5" stroke="#181725" stroke-width="2" stroke-linecap="round" stroke-linejoin="round"/>
</svg>
