<svg width="19" height="18" viewBox="0 0 19 18" fill="none" xmlns="http://www.w3.org/2000/svg">
<path d="M1.33325 1H7.33325V7H1.33325V1Z" stroke="#262437" stroke-width="2" stroke-linecap="round" stroke-linejoin="round"/>
<path d="M11.3333 1H17.3333V7H11.3333V1Z" stroke="#262437" stroke-width="2" stroke-linecap="round" stroke-linejoin="round"/>
<path d="M1.33325 11H7.33325V17H1.33325V11Z" stroke="#262437" stroke-width="2" stroke-linecap="round" stroke-linejoin="round"/>
<path d="M11.3333 14C11.3333 14.7956 11.6493 15.5587 12.2119 16.1213C12.7745 16.6839 13.5376 17 14.3333 17C15.1289 17 15.892 16.6839 16.4546 16.1213C17.0172 15.5587 17.3333 14.7956 17.3333 14C17.3333 13.2044 17.0172 12.4413 16.4546 11.8787C15.892 11.3161 15.1289 11 14.3333 11C13.5376 11 12.7745 11.3161 12.2119 11.8787C11.6493 12.4413 11.3333 13.2044 11.3333 14Z" stroke="#262437" stroke-width="2" stroke-linecap="round" stroke-linejoin="round"/>
</svg>
