<svg width="21" height="19" viewBox="0 0 21 19" fill="none" xmlns="http://www.w3.org/2000/svg">
<path d="M18.5001 10.5717L11.0001 17.9997L3.50006 10.5717C3.00536 10.0903 2.6157 9.5117 2.3556 8.87232C2.09551 8.23295 1.97062 7.54664 1.98879 6.85662C2.00697 6.1666 2.16782 5.48782 2.46121 4.86303C2.75461 4.23823 3.17419 3.68094 3.69354 3.22627C4.21289 2.77159 4.82076 2.42938 5.47887 2.22117C6.13697 2.01296 6.83106 1.94327 7.51743 2.01649C8.20379 2.08971 8.86756 2.30425 9.46693 2.64659C10.0663 2.98894 10.5883 3.45169 11.0001 4.00569C11.4136 3.45571 11.9362 2.99701 12.5352 2.65829C13.1341 2.31958 13.7966 2.10814 14.481 2.03721C15.1654 1.96628 15.8571 2.03739 16.5128 2.24608C17.1685 2.45477 17.7741 2.79656 18.2916 3.25005C18.8091 3.70354 19.2275 4.25897 19.5205 4.88158C19.8135 5.50419 19.9748 6.18057 19.9944 6.8684C20.0139 7.55622 19.8913 8.24068 19.6342 8.87894C19.3771 9.5172 18.991 10.0955 18.5001 10.5777M11 3.99969L7.70697 7.2927C7.5195 7.48022 7.41418 7.73453 7.41418 7.99969C7.41418 8.26486 7.5195 8.51917 7.70697 8.70669L8.24997 9.24969C8.93997 9.93969 10.06 9.93969 10.75 9.24969L11.75 8.24969C12.3467 7.65296 13.1561 7.31772 14 7.31772C14.8439 7.31772 15.6532 7.65296 16.25 8.24969L18.5 10.4997M11.5 13.4997L13.5 15.4997M14 10.9997L16 12.9997" stroke="#262437" stroke-width="2" stroke-linecap="round" stroke-linejoin="round"/>
</svg>
