<svg width="21" height="20" viewBox="0 0 21 20" fill="none" xmlns="http://www.w3.org/2000/svg">
<path d="M1.5 19H19.5M1.5 5V6C1.5 6.79565 1.81607 7.55871 2.37868 8.12132C2.94129 8.68393 3.70435 9 4.5 9C5.29565 9 6.05871 8.68393 6.62132 8.12132C7.18393 7.55871 7.5 6.79565 7.5 6M1.5 5H19.5M1.5 5L3.5 1H17.5L19.5 5M7.5 6V5M7.5 6C7.5 6.79565 7.81607 7.55871 8.37868 8.12132C8.94129 8.68393 9.70435 9 10.5 9C11.2956 9 12.0587 8.68393 12.6213 8.12132C13.1839 7.55871 13.5 6.79565 13.5 6M13.5 6V5M13.5 6C13.5 6.79565 13.8161 7.55871 14.3787 8.12132C14.9413 8.68393 15.7044 9 16.5 9C17.2956 9 18.0587 8.68393 18.6213 8.12132C19.1839 7.55871 19.5 6.79565 19.5 6V5M3.5 19V8.85M17.5 19V8.85M7.5 19V15C7.5 14.4696 7.71071 13.9609 8.08579 13.5858C8.46086 13.2107 8.96957 13 9.5 13H11.5C12.0304 13 12.5391 13.2107 12.9142 13.5858C13.2893 13.9609 13.5 14.4696 13.5 15V19" stroke="#262437" stroke-width="2" stroke-linecap="round" stroke-linejoin="round"/>
</svg>
