<svg width="30" height="30" viewBox="0 0 30 30" fill="none" xmlns="http://www.w3.org/2000/svg">
<path d="M4.5 21C5.29565 21 6.05871 21.3161 6.62132 21.8787C7.18393 22.4413 7.5 23.2044 7.5 24C7.5 24.7956 7.18393 25.5587 6.62132 26.1213C6.05871 26.6839 5.29565 27 4.5 27C3.70435 27 2.94129 26.6839 2.37868 26.1213C1.81607 25.5587 1.5 24.7956 1.5 24C1.5 23.2044 1.81607 22.4413 2.37868 21.8787C2.94129 21.3161 3.70435 21 4.5 21ZM4.5 21V13.5C4.5 11.5109 5.29018 9.60322 6.6967 8.1967C8.10322 6.79018 10.0109 6 12 6H16.5M25.5 9C24.7044 9 23.9413 8.68393 23.3787 8.12132C22.8161 7.55871 22.5 6.79565 22.5 6C22.5 5.20435 22.8161 4.44129 23.3787 3.87868C23.9413 3.31607 24.7044 3 25.5 3C26.2956 3 27.0587 3.31607 27.6213 3.87868C28.1839 4.44129 28.5 5.20435 28.5 6C28.5 6.79565 28.1839 7.55871 27.6213 8.12132C27.0587 8.68393 26.2956 9 25.5 9ZM25.5 9V16.5C25.5 18.4891 24.7098 20.3968 23.3033 21.8033C21.8968 23.2098 19.9891 24 18 24H13.5M13.5 24L18 19.5M13.5 24L18 28.5M16.5 6L12 1.5M16.5 6L12 10.5" stroke="#181725" stroke-width="2" stroke-linecap="round" stroke-linejoin="round"/>
</svg>
