<svg width="30" height="30" viewBox="0 0 30 30" fill="none" xmlns="http://www.w3.org/2000/svg">
<path d="M3 7.5H7.5C7.89782 7.5 8.27936 7.34196 8.56066 7.06066C8.84196 6.77936 9 6.39782 9 6V4.5C9 3.70435 9.31607 2.94129 9.87868 2.37868C10.4413 1.81607 11.2044 1.5 12 1.5C12.7956 1.5 13.5587 1.81607 14.1213 2.37868C14.6839 2.94129 15 3.70435 15 4.5V6C15 6.39782 15.158 6.77936 15.4393 7.06066C15.7206 7.34196 16.1022 7.5 16.5 7.5H21C21.3978 7.5 21.7794 7.65804 22.0607 7.93934C22.342 8.22064 22.5 8.60218 22.5 9V13.5C22.5 13.8978 22.658 14.2794 22.9393 14.5607C23.2206 14.842 23.6022 15 24 15H25.5C26.2956 15 27.0587 15.3161 27.6213 15.8787C28.1839 16.4413 28.5 17.2044 28.5 18C28.5 18.7956 28.1839 19.5587 27.6213 20.1213C27.0587 20.6839 26.2956 21 25.5 21H24C23.6022 21 23.2206 21.158 22.9393 21.4393C22.658 21.7206 22.5 22.1022 22.5 22.5V27C22.5 27.3978 22.342 27.7794 22.0607 28.0607C21.7794 28.342 21.3978 28.5 21 28.5H16.5C16.1022 28.5 15.7206 28.342 15.4393 28.0607C15.158 27.7794 15 27.3978 15 27V25.5C15 24.7044 14.6839 23.9413 14.1213 23.3787C13.5587 22.8161 12.7956 22.5 12 22.5C11.2044 22.5 10.4413 22.8161 9.87868 23.3787C9.31607 23.9413 9 24.7044 9 25.5V27C9 27.3978 8.84196 27.7794 8.56066 28.0607C8.27936 28.342 7.89782 28.5 7.5 28.5H3C2.60218 28.5 2.22064 28.342 1.93934 28.0607C1.65804 27.7794 1.5 27.3978 1.5 27V22.5C1.5 22.1022 1.65804 21.7206 1.93934 21.4393C2.22064 21.158 2.60218 21 3 21H4.5C5.29565 21 6.05871 20.6839 6.62132 20.1213C7.18393 19.5587 7.5 18.7956 7.5 18C7.5 17.2044 7.18393 16.4413 6.62132 15.8787C6.05871 15.3161 5.29565 15 4.5 15H3C2.60218 15 2.22064 14.842 1.93934 14.5607C1.65804 14.2794 1.5 13.8978 1.5 13.5V9C1.5 8.60218 1.65804 8.22064 1.93934 7.93934C2.22064 7.65804 2.60218 7.5 3 7.5Z" stroke="#181725" stroke-width="2" stroke-linecap="round" stroke-linejoin="round"/>
</svg>
