<svg width="30" height="30" viewBox="0 0 30 30" fill="none" xmlns="http://www.w3.org/2000/svg">
<path d="M1.5 28.5L5.25 24.75M24.75 5.25L28.5 1.5M12 13.5L9 16.5M16.5 18L13.5 21M7.49999 15L15 22.5L12.75 24.75C12.2605 25.2557 11.6753 25.6588 11.0284 25.9361C10.3815 26.2133 9.68592 26.359 8.98216 26.3647C8.27841 26.3704 7.58055 26.236 6.92926 25.9693C6.27796 25.7027 5.68625 25.309 5.18861 24.8114C4.69096 24.3137 4.29733 23.722 4.03065 23.0707C3.76396 22.4194 3.62956 21.7216 3.63528 21.0178C3.64099 20.3141 3.7867 19.6185 4.06392 18.9716C4.34115 18.3247 4.74433 17.7395 5.24999 17.25L7.49999 15ZM22.5 15L15 7.49999L17.25 5.24999C17.7395 4.74433 18.3247 4.34115 18.9716 4.06392C19.6185 3.7867 20.3141 3.64099 21.0178 3.63528C21.7216 3.62956 22.4194 3.76396 23.0707 4.03065C23.722 4.29733 24.3137 4.69096 24.8114 5.18861C25.309 5.68625 25.7027 6.27796 25.9693 6.92926C26.236 7.58055 26.3704 8.27841 26.3647 8.98216C26.359 9.68592 26.2133 10.3815 25.9361 11.0284C25.6588 11.6753 25.2557 12.2605 24.75 12.75L22.5 15Z" stroke="#181725" stroke-width="2" stroke-linecap="round" stroke-linejoin="round"/>
</svg>
