<svg width="21" height="21" viewBox="0 0 21 21" fill="none" xmlns="http://www.w3.org/2000/svg">
<path d="M19.3761 8.51008C19.0846 6.77383 18.2903 5.16118 17.0916 3.87181C15.8928 2.58245 14.3422 1.67299 12.6317 1.25604C10.9212 0.83909 9.12605 0.932967 7.46841 1.52604C5.81077 2.11912 4.36347 3.18535 3.30571 4.59272C2.24796 6.00009 1.62621 7.68678 1.51744 9.44397C1.40867 11.2012 1.81766 12.9516 2.69377 14.4787C3.56988 16.0058 4.87464 17.2424 6.44649 18.0354C8.01833 18.8283 9.78824 19.1429 11.5371 18.9401M2.10007 7.00008H18.9001M2.10007 13.0001H12.0001M10.0001 1.00008C8.31541 3.69969 7.42227 6.81794 7.42227 10.0001C7.42227 13.1822 8.31541 16.3005 10.0001 19.0001M11.0001 1.00008C12.6891 3.70512 13.5825 6.83102 13.5781 10.0201M19.5001 13.0001H17.0001C16.6022 13.0001 16.2207 13.1581 15.9394 13.4394C15.6581 13.7207 15.5001 14.1023 15.5001 14.5001C15.5001 14.8979 15.6581 15.2794 15.9394 15.5607C16.2207 15.842 16.6022 16.0001 17.0001 16.0001H18.0001C18.3979 16.0001 18.7794 16.1581 19.0607 16.4394C19.342 16.7207 19.5001 17.1023 19.5001 17.5001C19.5001 17.8979 19.342 18.2794 19.0607 18.5607C18.7794 18.842 18.3979 19.0001 18.0001 19.0001H15.5001M17.5001 19.0001V20.0001M17.5001 12.0001V13.0001" stroke="#262437" stroke-width="2" stroke-linecap="round" stroke-linejoin="round"/>
</svg>
