<svg width="60" height="60" viewBox="0 0 60 60" fill="none" xmlns="http://www.w3.org/2000/svg">
<rect width="60" height="60" rx="20" fill="#FFEAE9"/>
<path d="M18 22.5H22.5C22.8978 22.5 23.2794 22.342 23.5607 22.0607C23.842 21.7794 24 21.3978 24 21V19.5C24 18.7044 24.3161 17.9413 24.8787 17.3787C25.4413 16.8161 26.2044 16.5 27 16.5C27.7956 16.5 28.5587 16.8161 29.1213 17.3787C29.6839 17.9413 30 18.7044 30 19.5V21C30 21.3978 30.158 21.7794 30.4393 22.0607C30.7206 22.342 31.1022 22.5 31.5 22.5H36C36.3978 22.5 36.7794 22.658 37.0607 22.9393C37.342 23.2206 37.5 23.6022 37.5 24V28.5C37.5 28.8978 37.658 29.2794 37.9393 29.5607C38.2206 29.842 38.6022 30 39 30H40.5C41.2956 30 42.0587 30.3161 42.6213 30.8787C43.1839 31.4413 43.5 32.2044 43.5 33C43.5 33.7956 43.1839 34.5587 42.6213 35.1213C42.0587 35.6839 41.2956 36 40.5 36H39C38.6022 36 38.2206 36.158 37.9393 36.4393C37.658 36.7206 37.5 37.1022 37.5 37.5V42C37.5 42.3978 37.342 42.7794 37.0607 43.0607C36.7794 43.342 36.3978 43.5 36 43.5H31.5C31.1022 43.5 30.7206 43.342 30.4393 43.0607C30.158 42.7794 30 42.3978 30 42V40.5C30 39.7044 29.6839 38.9413 29.1213 38.3787C28.5587 37.8161 27.7956 37.5 27 37.5C26.2044 37.5 25.4413 37.8161 24.8787 38.3787C24.3161 38.9413 24 39.7044 24 40.5V42C24 42.3978 23.842 42.7794 23.5607 43.0607C23.2794 43.342 22.8978 43.5 22.5 43.5H18C17.6022 43.5 17.2206 43.342 16.9393 43.0607C16.658 42.7794 16.5 42.3978 16.5 42V37.5C16.5 37.1022 16.658 36.7206 16.9393 36.4393C17.2206 36.158 17.6022 36 18 36H19.5C20.2956 36 21.0587 35.6839 21.6213 35.1213C22.1839 34.5587 22.5 33.7956 22.5 33C22.5 32.2044 22.1839 31.4413 21.6213 30.8787C21.0587 30.3161 20.2956 30 19.5 30H18C17.6022 30 17.2206 29.842 16.9393 29.5607C16.658 29.2794 16.5 28.8978 16.5 28.5V24C16.5 23.6022 16.658 23.2206 16.9393 22.9393C17.2206 22.658 17.6022 22.5 18 22.5Z" stroke="#FF2D20" stroke-width="2" stroke-linecap="round" stroke-linejoin="round"/>
</svg>
