<svg width="60" height="60" viewBox="0 0 60 60" fill="none" xmlns="http://www.w3.org/2000/svg">
<rect width="60" height="60" rx="20" fill="#FFEAE9"/>
<path d="M31.5 36.75V25.5C31.5 25.1022 31.658 24.7206 31.9393 24.4393C32.2206 24.158 32.6022 24 33 24H42C42.3978 24 42.7794 24.158 43.0607 24.4393C43.342 24.7206 43.5 25.1022 43.5 25.5V30.75M39 24V19.5C39 19.1022 38.842 18.7206 38.5607 18.4393C38.2794 18.158 37.8978 18 37.5 18H18C17.6022 18 17.2206 18.158 16.9393 18.4393C16.658 18.7206 16.5 19.1022 16.5 19.5V37.5C16.5 37.8978 16.658 38.2794 16.9393 38.5607C17.2206 38.842 17.6022 39 18 39H30M40.5 45V36M40.5 36L45 40.5M40.5 36L36 40.5M36 25.5H39" stroke="#FF2D20" stroke-width="2" stroke-linecap="round" stroke-linejoin="round"/>
</svg>
