<svg width="60" height="60" viewBox="0 0 60 60" fill="none" xmlns="http://www.w3.org/2000/svg">
<rect width="60" height="60" rx="20" fill="#FFEAE9"/>
<path d="M22.5 33C20.9388 33.8814 19.6765 35.2089 18.8747 36.8124C18.073 38.4159 17.7684 40.2223 18 42C19.7777 42.2316 21.5841 41.927 23.1876 41.1253C24.7911 40.3235 26.1186 39.0612 27 37.5M18 31.5C20.6746 31.8179 23.1646 33.0263 25.0691 34.9309C26.9737 36.8354 28.1821 39.3254 28.5 42C29.8259 41.2356 30.9349 40.1457 31.7223 38.8334C32.5097 37.5211 32.9495 36.0296 33 34.5C35.5187 33.614 37.718 32.001 39.32 29.865C40.922 27.729 41.8546 25.166 42 22.5C42 21.3065 41.5259 20.1619 40.682 19.318C39.8381 18.4741 38.6935 18 37.5 18C34.834 18.1454 32.271 19.078 30.135 20.68C27.999 22.282 26.386 24.4813 25.5 27C23.9704 27.0505 22.4789 27.4903 21.1666 28.2777C19.8543 29.0651 18.7644 30.1741 18 31.5ZM33 25.5C33 25.8978 33.158 26.2794 33.4393 26.5607C33.7206 26.842 34.1022 27 34.5 27C34.8978 27 35.2794 26.842 35.5607 26.5607C35.842 26.2794 36 25.8978 36 25.5C36 25.1022 35.842 24.7206 35.5607 24.4393C35.2794 24.158 34.8978 24 34.5 24C34.1022 24 33.7206 24.158 33.4393 24.4393C33.158 24.7206 33 25.1022 33 25.5Z" stroke="#FF2D20" stroke-width="2" stroke-linecap="round" stroke-linejoin="round"/>
</svg>
