<svg width="60" height="60" viewBox="0 0 60 60" fill="none" xmlns="http://www.w3.org/2000/svg">
<rect width="60" height="60" rx="20" fill="#FFEAE9"/>
<path d="M30 34.5H20.25C19.2554 34.5 18.3016 34.1049 17.5983 33.4017C16.8951 32.6984 16.5 31.7446 16.5 30.75C16.5 29.7554 16.8951 28.8016 17.5983 28.0983C18.3016 27.3951 19.2554 27 20.25 27H21M34.5 30V39.75C34.5 40.7446 34.1049 41.6984 33.4017 42.4017C32.6984 43.1049 31.7446 43.5 30.75 43.5C29.7554 43.5 28.8016 43.1049 28.0983 42.4017C27.3951 41.6984 27 40.7446 27 39.75V39M30 25.5H39.75C40.7446 25.5 41.6984 25.8951 42.4017 26.5983C43.1049 27.3016 43.5 28.2554 43.5 29.25C43.5 30.2446 43.1049 31.1984 42.4017 31.9017C41.6984 32.6049 40.7446 33 39.75 33H39M25.5 30V20.25C25.5 19.2554 25.8951 18.3016 26.5983 17.5983C27.3016 16.8951 28.2554 16.5 29.25 16.5C30.2446 16.5 31.1984 16.8951 31.9017 17.5983C32.6049 18.3016 33 19.2554 33 20.25V21" stroke="#FF2D20" stroke-width="2" stroke-linecap="round" stroke-linejoin="round"/>
</svg>
