<svg width="60" height="60" viewBox="0 0 60 60" fill="none" xmlns="http://www.w3.org/2000/svg">
<rect width="60" height="60" rx="20" fill="#FFEAE9"/>
<path d="M18 33V28.5C18 25.3174 19.2643 22.2652 21.5147 20.0147C23.7652 17.7643 26.8174 16.5 30 16.5C33.1826 16.5 36.2348 17.7643 38.4853 20.0147C40.7357 22.2652 42 25.3174 42 28.5V33M18 33C18 32.2044 18.3161 31.4413 18.8787 30.8787C19.4413 30.3161 20.2044 30 21 30H22.5C23.2956 30 24.0587 30.3161 24.6213 30.8787C25.1839 31.4413 25.5 32.2044 25.5 33V37.5C25.5 38.2956 25.1839 39.0587 24.6213 39.6213C24.0587 40.1839 23.2956 40.5 22.5 40.5H21C20.2044 40.5 19.4413 40.1839 18.8787 39.6213C18.3161 39.0587 18 38.2956 18 37.5V33ZM42 33C42 32.2044 41.6839 31.4413 41.1213 30.8787C40.5587 30.3161 39.7956 30 39 30H37.5C36.7044 30 35.9413 30.3161 35.3787 30.8787C34.8161 31.4413 34.5 32.2044 34.5 33V37.5C34.5 38.2956 34.8161 39.0587 35.3787 39.6213C35.9413 40.1839 36.7044 40.5 37.5 40.5H39M42 33V37.5C42 38.2956 41.6839 39.0587 41.1213 39.6213C40.5587 40.1839 39.7956 40.5 39 40.5M39 40.5C39 42.9855 34.971 45 30 45" stroke="#FF2D20" stroke-width="2" stroke-linecap="round" stroke-linejoin="round"/>
</svg>
