<svg width="60" height="60" viewBox="0 0 60 60" fill="none" xmlns="http://www.w3.org/2000/svg">
<rect width="60" height="60" rx="20" fill="#FFEAE9"/>
<path d="M16.5 43.5H43.5M16.5 22.5V24C16.5 25.1935 16.9741 26.3381 17.818 27.182C18.6619 28.0259 19.8065 28.5 21 28.5C22.1935 28.5 23.3381 28.0259 24.182 27.182C25.0259 26.3381 25.5 25.1935 25.5 24M16.5 22.5H43.5M16.5 22.5L19.5 16.5H40.5L43.5 22.5M25.5 24V22.5M25.5 24C25.5 25.1935 25.9741 26.3381 26.818 27.182C27.6619 28.0259 28.8065 28.5 30 28.5C31.1935 28.5 32.3381 28.0259 33.182 27.182C34.0259 26.3381 34.5 25.1935 34.5 24M34.5 24V22.5M34.5 24C34.5 25.1935 34.9741 26.3381 35.818 27.182C36.6619 28.0259 37.8065 28.5 39 28.5C40.1935 28.5 41.3381 28.0259 42.182 27.182C43.0259 26.3381 43.5 25.1935 43.5 24V22.5M19.5 43.5V28.275M40.5 43.5V28.275M25.5 43.5V37.5C25.5 36.7044 25.8161 35.9413 26.3787 35.3787C26.9413 34.8161 27.7044 34.5 28.5 34.5H31.5C32.2956 34.5 33.0587 34.8161 33.6213 35.3787C34.1839 35.9413 34.5 36.7044 34.5 37.5V43.5" stroke="#FF2D20" stroke-width="2" stroke-linecap="round" stroke-linejoin="round"/>
</svg>
