<svg width="27" height="27" viewBox="0 0 27 27" fill="none" xmlns="http://www.w3.org/2000/svg">
<path d="M6.50023 16C4.93908 16.8814 3.67671 18.2089 2.87497 19.8124C2.07322 21.4159 1.76863 23.2223 2.00023 25C3.77797 25.2316 5.58437 24.927 7.18787 24.1253C8.79136 23.3235 10.1189 22.0612 11.0002 20.5M2.00024 14.5C4.67488 14.8179 7.16482 16.0263 9.06938 17.9309C10.9739 19.8354 12.1824 22.3254 12.5002 25C13.8261 24.2356 14.9352 23.1457 15.7226 21.8334C16.51 20.5211 16.9497 19.0296 17.0002 17.5C19.5189 16.614 21.7183 15.001 23.3203 12.865C24.9222 10.729 25.8549 8.16601 26.0002 5.5C26.0002 4.30653 25.5261 3.16193 24.6822 2.31802C23.8383 1.47411 22.6937 1 21.5002 1C18.8342 1.14536 16.2712 2.078 14.1352 3.67998C11.9993 5.28196 10.3863 7.48133 9.50024 10C7.97064 10.0505 6.47918 10.4903 5.16684 11.2777C3.8545 12.0651 2.76463 13.1741 2.00024 14.5ZM17.0002 8.5C17.0002 8.89782 17.1583 9.27936 17.4396 9.56066C17.7209 9.84196 18.1024 10 18.5002 10C18.8981 10 19.2796 9.84196 19.5609 9.56066C19.8422 9.27936 20.0002 8.89782 20.0002 8.5C20.0002 8.10218 19.8422 7.72064 19.5609 7.43934C19.2796 7.15804 18.8981 7 18.5002 7C18.1024 7 17.7209 7.15804 17.4396 7.43934C17.1583 7.72064 17.0002 8.10218 17.0002 8.5Z" stroke="#181725" stroke-width="2" stroke-linecap="round" stroke-linejoin="round"/>
</svg>
