<svg width="60" height="60" viewBox="0 0 60 60" fill="none" xmlns="http://www.w3.org/2000/svg">
<rect width="60" height="60" rx="20" fill="#E4FDFB"/>
<path d="M43.314 27.7651C42.8768 25.1607 41.6854 22.7418 39.8872 20.8077C38.089 18.8737 35.7631 17.5095 33.1974 16.8841C30.6317 16.2586 27.939 16.3995 25.4525 17.2891C22.966 18.1787 20.7951 19.778 19.2085 21.8891C17.6218 24.0001 16.6892 26.5302 16.526 29.166C16.3629 31.8017 16.9764 34.4275 18.2905 36.7181C19.6047 39.0087 21.5618 40.8636 23.9196 42.053C26.2774 43.2425 28.9322 43.7143 31.5555 43.4101M17.4 25.5001H42.6M17.4 34.5001H32.25M29.25 16.5001C26.723 20.5495 25.3833 25.2269 25.3833 30.0001C25.3833 34.7733 26.723 39.4507 29.25 43.5001M30.75 16.5001C33.2835 20.5577 34.6236 25.2465 34.617 30.0301M43.5 34.5001H39.75C39.1532 34.5001 38.5809 34.7372 38.159 35.1591C37.737 35.5811 37.5 36.1534 37.5 36.7501C37.5 37.3469 37.737 37.9191 38.159 38.3411C38.5809 38.7631 39.1532 39.0001 39.75 39.0001H41.25C41.8467 39.0001 42.419 39.2372 42.841 39.6591C43.2629 40.0811 43.5 40.6534 43.5 41.2501C43.5 41.8469 43.2629 42.4191 42.841 42.8411C42.419 43.2631 41.8467 43.5001 41.25 43.5001H37.5M40.5 43.5001V45.0001M40.5 33.0001V34.5001" stroke="#1F7069" stroke-width="2" stroke-linecap="round" stroke-linejoin="round"/>
</svg>
