<svg width="21" height="20" viewBox="0 0 21 20" fill="none" xmlns="http://www.w3.org/2000/svg">
<path d="M2.5 5H5.5C5.76522 5 6.01957 4.89464 6.20711 4.70711C6.39464 4.51957 6.5 4.26522 6.5 4V3C6.5 2.46957 6.71071 1.96086 7.08579 1.58579C7.46086 1.21071 7.96957 1 8.5 1C9.03043 1 9.53914 1.21071 9.91421 1.58579C10.2893 1.96086 10.5 2.46957 10.5 3V4C10.5 4.26522 10.6054 4.51957 10.7929 4.70711C10.9804 4.89464 11.2348 5 11.5 5H14.5C14.7652 5 15.0196 5.10536 15.2071 5.29289C15.3946 5.48043 15.5 5.73478 15.5 6V9C15.5 9.26522 15.6054 9.51957 15.7929 9.70711C15.9804 9.89464 16.2348 10 16.5 10H17.5C18.0304 10 18.5391 10.2107 18.9142 10.5858C19.2893 10.9609 19.5 11.4696 19.5 12C19.5 12.5304 19.2893 13.0391 18.9142 13.4142C18.5391 13.7893 18.0304 14 17.5 14H16.5C16.2348 14 15.9804 14.1054 15.7929 14.2929C15.6054 14.4804 15.5 14.7348 15.5 15V18C15.5 18.2652 15.3946 18.5196 15.2071 18.7071C15.0196 18.8946 14.7652 19 14.5 19H11.5C11.2348 19 10.9804 18.8946 10.7929 18.7071C10.6054 18.5196 10.5 18.2652 10.5 18V17C10.5 16.4696 10.2893 15.9609 9.91421 15.5858C9.53914 15.2107 9.03043 15 8.5 15C7.96957 15 7.46086 15.2107 7.08579 15.5858C6.71071 15.9609 6.5 16.4696 6.5 17V18C6.5 18.2652 6.39464 18.5196 6.20711 18.7071C6.01957 18.8946 5.76522 19 5.5 19H2.5C2.23478 19 1.98043 18.8946 1.79289 18.7071C1.60536 18.5196 1.5 18.2652 1.5 18V15C1.5 14.7348 1.60536 14.4804 1.79289 14.2929C1.98043 14.1054 2.23478 14 2.5 14H3.5C4.03043 14 4.53914 13.7893 4.91421 13.4142C5.28929 13.0391 5.5 12.5304 5.5 12C5.5 11.4696 5.28929 10.9609 4.91421 10.5858C4.53914 10.2107 4.03043 10 3.5 10H2.5C2.23478 10 1.98043 9.89464 1.79289 9.70711C1.60536 9.51957 1.5 9.26522 1.5 9V6C1.5 5.73478 1.60536 5.48043 1.79289 5.29289C1.98043 5.10536 2.23478 5 2.5 5Z" stroke="#262437" stroke-width="2" stroke-linecap="round" stroke-linejoin="round"/>
</svg>
