<svg width="18" height="18" viewBox="0 0 18 18" fill="none" xmlns="http://www.w3.org/2000/svg">
<path d="M9 2.5C7.926 1.914 6.417 1 5 1C2.9 1 1 2.247 1 6C1 10.899 2.056 14.41 3.671 16.537C4.244 17.293 5.641 17.058 6.238 16.301C6.636 15.796 7.057 14.862 7.5 13.5C7.792 12.729 8.392 11.996 9 12C9.602 12 10.21 12.737 10.5 13.5C10.943 14.862 11.364 15.795 11.762 16.3C12.359 17.059 13.762 17.293 14.329 16.537C15.944 14.41 17 10.9 17 6C17 2.26 15.092 1 13 1C11.577 1 10.08 1.911 9 2.5ZM9 2.5L12 4" stroke="#262437" stroke-width="2" stroke-linecap="round" stroke-linejoin="round"/>
</svg>
