<svg width="26" height="26" viewBox="0 0 26 26" fill="none" xmlns="http://www.w3.org/2000/svg">
<path d="M16 5.5H25M20.5 1V10M1 2.5C1 2.10218 1.15804 1.72064 1.43934 1.43934C1.72064 1.15804 2.10218 1 2.5 1H8.5C8.89782 1 9.27936 1.15804 9.56066 1.43934C9.84196 1.72064 10 2.10218 10 2.5V8.5C10 8.89782 9.84196 9.27936 9.56066 9.56066C9.27936 9.84196 8.89782 10 8.5 10H2.5C2.10218 10 1.72064 9.84196 1.43934 9.56066C1.15804 9.27936 1 8.89782 1 8.5V2.5ZM1 17.5C1 17.1022 1.15804 16.7206 1.43934 16.4393C1.72064 16.158 2.10218 16 2.5 16H8.5C8.89782 16 9.27936 16.158 9.56066 16.4393C9.84196 16.7206 10 17.1022 10 17.5V23.5C10 23.8978 9.84196 24.2794 9.56066 24.5607C9.27936 24.842 8.89782 25 8.5 25H2.5C2.10218 25 1.72064 24.842 1.43934 24.5607C1.15804 24.2794 1 23.8978 1 23.5V17.5ZM16 17.5C16 17.1022 16.158 16.7206 16.4393 16.4393C16.7206 16.158 17.1022 16 17.5 16H23.5C23.8978 16 24.2794 16.158 24.5607 16.4393C24.842 16.7206 25 17.1022 25 17.5V23.5C25 23.8978 24.842 24.2794 24.5607 24.5607C24.2794 24.842 23.8978 25 23.5 25H17.5C17.1022 25 16.7206 24.842 16.4393 24.5607C16.158 24.2794 16 23.8978 16 23.5V17.5Z" stroke="#181725" stroke-width="2" stroke-linecap="round" stroke-linejoin="round"/>
</svg>
