<svg width="23" height="20" viewBox="0 0 23 20" fill="none" xmlns="http://www.w3.org/2000/svg">
<path d="M9.90652 1.95745L1.48452 16.0174C1.311 16.3181 1.21921 16.659 1.21827 17.0062C1.21733 17.3534 1.30729 17.6948 1.47919 17.9964C1.65109 18.298 1.89895 18.5494 2.19812 18.7256C2.4973 18.9017 2.83737 18.9965 3.18452 19.0004H20.0295C20.3767 18.9965 20.7167 18.9017 21.0159 18.7256C21.3151 18.5494 21.563 18.298 21.7349 17.9964C21.9068 17.6948 21.9967 17.3534 21.9958 17.0062C21.9948 16.659 21.903 16.3181 21.7295 16.0174L13.3065 1.95745C13.1292 1.66544 12.8796 1.42404 12.5818 1.25651C12.2841 1.08898 11.9482 1.00098 11.6065 1.00098C11.2649 1.00098 10.929 1.08898 10.6312 1.25651C10.3335 1.42404 10.0839 1.66544 9.90652 1.95745Z" stroke="#262437" stroke-width="2" stroke-linecap="round" stroke-linejoin="round"/>
</svg>
