<svg width="60" height="60" viewBox="0 0 60 60" fill="none" xmlns="http://www.w3.org/2000/svg">
<rect width="60" height="60" rx="20" fill="#FFE3D9"/>
<path d="M37.5 43.5C35.9087 43.5 34.3826 42.8679 33.2574 41.7426C32.1321 40.6174 31.5 39.0913 31.5 37.5V19.5C31.5 18.7044 31.8161 17.9413 32.3787 17.3787C32.9413 16.8161 33.7044 16.5 34.5 16.5H40.5C41.2956 16.5 42.0587 16.8161 42.6213 17.3787C43.1839 17.9413 43.5 18.7044 43.5 19.5V37.5C43.5 39.0913 42.8679 40.6174 41.7426 41.7426C40.6174 42.8679 39.0913 43.5 37.5 43.5ZM37.5 43.5H19.5C18.7044 43.5 17.9413 43.1839 17.3787 42.6213C16.8161 42.0587 16.5 41.2956 16.5 40.5V34.5C16.5 33.7044 16.8161 32.9413 17.3787 32.3787C17.9413 31.8161 18.7044 31.5 19.5 31.5H22.95M31.5 23.025L28.5 20.025C27.9374 19.4626 27.1745 19.1466 26.379 19.1466C25.5835 19.1466 24.8206 19.4626 24.258 20.025L20.016 24.267C19.4536 24.8296 19.1376 25.5925 19.1376 26.388C19.1376 27.1835 19.4536 27.9464 20.016 28.509L33.516 42.009M37.5 37.5V37.515" stroke="#792608" stroke-width="2" stroke-linecap="round" stroke-linejoin="round"/>
</svg>
