<svg width="60" height="60" viewBox="0 0 60 60" fill="none" xmlns="http://www.w3.org/2000/svg">
<rect width="60" height="60" rx="20" fill="#FFE3D9"/>
<path d="M28.5 43.5H24C23.2044 43.5 22.4413 43.1839 21.8787 42.6213C21.3161 42.0587 21 41.2957 21 40.5V19.5C21 18.7044 21.3161 17.9413 21.8787 17.3787C22.4413 16.8161 23.2044 16.5 24 16.5H36C36.7956 16.5 37.5587 16.8161 38.1213 17.3787C38.6839 17.9413 39 18.7044 39 19.5V27M28.5 18H31.5M38.7 43.2255L35.442 44.9325C35.3453 44.9828 35.2365 45.0053 35.1278 44.9974C35.0191 44.9895 34.9148 44.9515 34.8264 44.8877C34.738 44.8239 34.6691 44.7368 34.6274 44.6361C34.5856 44.5354 34.5727 44.4251 34.59 44.3175L35.2125 40.701L32.577 38.1405C32.4983 38.0645 32.4426 37.9678 32.4163 37.8616C32.3899 37.7555 32.3939 37.644 32.4278 37.54C32.4618 37.436 32.5243 37.3436 32.6082 37.2734C32.6921 37.2032 32.7941 37.158 32.9025 37.143L36.5445 36.615L38.1735 33.3255C38.2222 33.2275 38.2973 33.1451 38.3903 33.0875C38.4833 33.0298 38.5906 32.9993 38.7 32.9993C38.8094 32.9993 38.9167 33.0298 39.0097 33.0875C39.1027 33.1451 39.1778 33.2275 39.2265 33.3255L40.8555 36.615L44.4975 37.143C44.6056 37.1586 44.7071 37.204 44.7907 37.2743C44.8742 37.3445 44.9365 37.4368 44.9703 37.5406C45.0042 37.6444 45.0083 37.7556 44.9823 37.8616C44.9563 37.9676 44.9011 38.0642 44.823 38.1405L42.1875 40.701L42.8085 44.316C42.8271 44.4238 42.8152 44.5347 42.774 44.636C42.7328 44.7374 42.664 44.8251 42.5754 44.8893C42.4868 44.9535 42.382 44.9916 42.2729 44.9992C42.1637 45.0069 42.0546 44.9838 41.958 44.9325L38.7 43.2255Z" stroke="#792608" stroke-width="2" stroke-linecap="round" stroke-linejoin="round"/>
</svg>
