<svg width="60" height="60" viewBox="0 0 60 60" fill="none" xmlns="http://www.w3.org/2000/svg">
<rect width="60" height="60" rx="20" fill="#FFE3D9"/>
<path d="M39.75 39.75L43.5 43.5M18 21H42M18 30H24M18 39H24M28.5 34.5C28.5 36.0913 29.1321 37.6174 30.2574 38.7426C31.3826 39.8679 32.9087 40.5 34.5 40.5C36.0913 40.5 37.6174 39.8679 38.7426 38.7426C39.8679 37.6174 40.5 36.0913 40.5 34.5C40.5 32.9087 39.8679 31.3826 38.7426 30.2574C37.6174 29.1321 36.0913 28.5 34.5 28.5C32.9087 28.5 31.3826 29.1321 30.2574 30.2574C29.1321 31.3826 28.5 32.9087 28.5 34.5Z" stroke="#792608" stroke-width="2" stroke-linecap="round" stroke-linejoin="round"/>
</svg>
