<svg width="60" height="60" viewBox="0 0 60 60" fill="none" xmlns="http://www.w3.org/2000/svg">
<rect width="60" height="60" rx="20" fill="#FFE3D9"/>
<path d="M16.5 40.5H43.5M19.5 22.5C19.5 22.1022 19.658 21.7206 19.9393 21.4393C20.2206 21.158 20.6022 21 21 21H39C39.3978 21 39.7794 21.158 40.0607 21.4393C40.342 21.7206 40.5 22.1022 40.5 22.5V34.5C40.5 34.8978 40.342 35.2794 40.0607 35.5607C39.7794 35.842 39.3978 36 39 36H21C20.6022 36 20.2206 35.842 19.9393 35.5607C19.658 35.2794 19.5 34.8978 19.5 34.5V22.5Z" stroke="#792608" stroke-width="2" stroke-linecap="round" stroke-linejoin="round"/>
</svg>
