<svg width="60" height="60" viewBox="0 0 60 60" fill="none" xmlns="http://www.w3.org/2000/svg">
<rect width="60" height="60" rx="20" fill="#FFE3D9"/>
<path d="M21 34.5V33C21 32.2044 21.3161 31.4413 21.8787 30.8787C22.4413 30.3161 23.2044 30 24 30H36C36.7956 30 37.5587 30.3161 38.1213 30.8787C38.6839 31.4413 39 32.2044 39 33V34.5M30 25.5V30M16.5 37.5C16.5 36.7044 16.8161 35.9413 17.3787 35.3787C17.9413 34.8161 18.7044 34.5 19.5 34.5H22.5C23.2956 34.5 24.0587 34.8161 24.6213 35.3787C25.1839 35.9413 25.5 36.7044 25.5 37.5V40.5C25.5 41.2956 25.1839 42.0587 24.6213 42.6213C24.0587 43.1839 23.2956 43.5 22.5 43.5H19.5C18.7044 43.5 17.9413 43.1839 17.3787 42.6213C16.8161 42.0587 16.5 41.2956 16.5 40.5V37.5ZM34.5 37.5C34.5 36.7044 34.8161 35.9413 35.3787 35.3787C35.9413 34.8161 36.7044 34.5 37.5 34.5H40.5C41.2956 34.5 42.0587 34.8161 42.6213 35.3787C43.1839 35.9413 43.5 36.7044 43.5 37.5V40.5C43.5 41.2956 43.1839 42.0587 42.6213 42.6213C42.0587 43.1839 41.2956 43.5 40.5 43.5H37.5C36.7044 43.5 35.9413 43.1839 35.3787 42.6213C34.8161 42.0587 34.5 41.2956 34.5 40.5V37.5ZM25.5 19.5C25.5 18.7044 25.8161 17.9413 26.3787 17.3787C26.9413 16.8161 27.7044 16.5 28.5 16.5H31.5C32.2956 16.5 33.0587 16.8161 33.6213 17.3787C34.1839 17.9413 34.5 18.7044 34.5 19.5V22.5C34.5 23.2956 34.1839 24.0587 33.6213 24.6213C33.0587 25.1839 32.2956 25.5 31.5 25.5H28.5C27.7044 25.5 26.9413 25.1839 26.3787 24.6213C25.8161 24.0587 25.5 23.2956 25.5 22.5V19.5Z" stroke="#792608" stroke-width="2" stroke-linecap="round" stroke-linejoin="round"/>
</svg>
