<svg width="60" height="60" viewBox="0 0 60 60" fill="none" xmlns="http://www.w3.org/2000/svg">
<rect width="60" height="60" rx="20" fill="#D9E0FF"/>
<path d="M22.5 27V30C22.5 30.7956 22.8161 31.5587 23.3787 32.1213C23.9413 32.6839 24.7044 33 25.5 33C26.2956 33 27.0587 32.6839 27.6213 32.1213C28.1839 31.5587 28.5 30.7956 28.5 30V27M33 27L37.5 33M33 33L37.5 27M16.5 30C16.5 31.7728 16.8492 33.5283 17.5276 35.1662C18.2061 36.8041 19.2005 38.2923 20.4541 39.5459C21.7076 40.7995 23.1959 41.7939 24.8338 42.4724C26.4717 43.1508 28.2272 43.5 30 43.5C31.7728 43.5 33.5283 43.1508 35.1662 42.4724C36.8041 41.7939 38.2923 40.7995 39.5459 39.5459C40.7995 38.2923 41.7939 36.8041 42.4724 35.1662C43.1508 33.5283 43.5 31.7728 43.5 30C43.5 28.2272 43.1508 26.4717 42.4724 24.8338C41.7939 23.1959 40.7995 21.7076 39.5459 20.4541C38.2923 19.2005 36.8041 18.2061 35.1662 17.5276C33.5283 16.8492 31.7728 16.5 30 16.5C28.2272 16.5 26.4717 16.8492 24.8338 17.5276C23.1959 18.2061 21.7076 19.2005 20.4541 20.4541C19.2005 21.7076 18.2061 23.1959 17.5276 24.8338C16.8492 26.4717 16.5 28.2272 16.5 30Z" stroke="#061244" stroke-width="2" stroke-linecap="round" stroke-linejoin="round"/>
</svg>
