<svg width="21" height="15" viewBox="0 0 21 15" fill="none" xmlns="http://www.w3.org/2000/svg">
<path d="M15 5C15 5 13.624 8.606 13.5 9C13.454 8.6 12 1 12 1C9.373 1 8.234 2.562 7.5 4.5C7.5 4.5 5.657 9.093 5.5 9.5C5.487 9.132 5 5 5 5C4.85 2.629 2.789 1.02 1 1.02L3 14C5.745 13.987 7.72 12.438 8.5 10.5C8.5 10.5 9.94 6.2 10 6C10.013 6.18 11 14 11 14C13.758 14 15.694 12.374 16.5 10.5L20 1C17.268 1 15.747 3.055 15 5Z" stroke="#262437" stroke-width="2" stroke-linecap="round" stroke-linejoin="round"/>
</svg>
