<svg width="19" height="17" viewBox="0 0 19 17" fill="none" xmlns="http://www.w3.org/2000/svg">
<path d="M6.33325 4C6.33325 4.79565 6.64932 5.55871 7.21193 6.12132C7.77454 6.68393 8.5376 7 9.33325 7C10.1289 7 10.892 6.68393 11.4546 6.12132C12.0172 5.55871 12.3333 4.79565 12.3333 4C12.3333 3.20435 12.0172 2.44129 11.4546 1.87868C10.892 1.31607 10.1289 1 9.33325 1C8.5376 1 7.77454 1.31607 7.21193 1.87868C6.64932 2.44129 6.33325 3.20435 6.33325 4Z" stroke="#262437" stroke-width="2" stroke-linecap="round" stroke-linejoin="round"/>
<path d="M11.3333 13C11.3333 13.7956 11.6493 14.5587 12.2119 15.1213C12.7745 15.6839 13.5376 16 14.3333 16C15.1289 16 15.892 15.6839 16.4546 15.1213C17.0172 14.5587 17.3333 13.7956 17.3333 13C17.3333 12.2044 17.0172 11.4413 16.4546 10.8787C15.892 10.3161 15.1289 10 14.3333 10C13.5376 10 12.7745 10.3161 12.2119 10.8787C11.6493 11.4413 11.3333 12.2044 11.3333 13Z" stroke="#262437" stroke-width="2" stroke-linecap="round" stroke-linejoin="round"/>
<path d="M1.33325 13C1.33325 13.394 1.41085 13.7841 1.56161 14.1481C1.71238 14.512 1.93336 14.8427 2.21193 15.1213C2.49051 15.3999 2.82122 15.6209 3.1852 15.7716C3.54918 15.9224 3.93929 16 4.33325 16C4.72722 16 5.11733 15.9224 5.4813 15.7716C5.84528 15.6209 6.176 15.3999 6.45457 15.1213C6.73315 14.8427 6.95413 14.512 7.10489 14.1481C7.25565 13.7841 7.33325 13.394 7.33325 13C7.33325 12.606 7.25565 12.2159 7.10489 11.8519C6.95413 11.488 6.73315 11.1573 6.45457 10.8787C6.176 10.6001 5.84528 10.3791 5.4813 10.2284C5.11733 10.0776 4.72722 10 4.33325 10C3.93929 10 3.54918 10.0776 3.1852 10.2284C2.82122 10.3791 2.49051 10.6001 2.21193 10.8787C1.93336 11.1573 1.71238 11.488 1.56161 11.8519C1.41085 12.2159 1.33325 12.606 1.33325 13Z" stroke="#262437" stroke-width="2" stroke-linecap="round" stroke-linejoin="round"/>
</svg>
