<svg width="60" height="60" viewBox="0 0 60 60" fill="none" xmlns="http://www.w3.org/2000/svg">
<rect width="60" height="60" rx="20" fill="#FFF6D9"/>
<path d="M43.3142 27.7651C42.877 25.1607 41.6856 22.7418 39.8875 20.8077C38.0893 18.8737 35.7634 17.5095 33.1977 16.8841C30.632 16.2586 27.9392 16.3995 25.4527 17.2891C22.9663 18.1787 20.7953 19.778 19.2087 21.8891C17.6221 24.0001 16.6894 26.5302 16.5263 29.166C16.3631 31.8017 16.9766 34.4275 18.2908 36.7181C19.6049 39.0087 21.5621 40.8636 23.9198 42.053C26.2776 43.2425 28.9325 43.7143 31.5557 43.4101M17.4002 25.5001H42.6002M17.4002 34.5001H32.2502M29.2502 16.5001C26.7232 20.5495 25.3835 25.2269 25.3835 30.0001C25.3835 34.7733 26.7232 39.4507 29.2502 43.5001M30.7502 16.5001C33.2838 20.5577 34.6239 25.2465 34.6172 30.0301M43.5002 34.5001H39.7502C39.1535 34.5001 38.5812 34.7372 38.1592 35.1591C37.7373 35.5811 37.5002 36.1534 37.5002 36.7501C37.5002 37.3469 37.7373 37.9191 38.1592 38.3411C38.5812 38.7631 39.1535 39.0001 39.7502 39.0001H41.2502C41.847 39.0001 42.4192 39.2372 42.8412 39.6591C43.2632 40.0811 43.5002 40.6534 43.5002 41.2501C43.5002 41.8469 43.2632 42.4191 42.8412 42.8411C42.4192 43.2631 41.847 43.5001 41.2502 43.5001H37.5002M40.5002 43.5001V45.0001M40.5002 33.0001V34.5001" stroke="#161918" stroke-width="2" stroke-linecap="round" stroke-linejoin="round"/>
</svg>
