<svg width="463" height="380" viewBox="0 0 463 380" fill="none" xmlns="http://www.w3.org/2000/svg">
<rect x="0.5" y="0.5" width="462" height="327" rx="7.5" fill="#F6F4F7"/>
<rect x="0.5" y="0.5" width="462" height="327" rx="7.5" stroke="#E0E0E0"/>
<rect x="208.562" y="71.5" width="52.3968" height="52.3968" rx="7.5" fill="url(#paint0_linear_2729_1953)"/>
<rect x="208.562" y="71.5" width="52.3968" height="52.3968" rx="7.5" stroke="#E0E0E0"/>
<g clip-path="url(#clip0_2729_1953)">
<path fill-rule="evenodd" clip-rule="evenodd" d="M251.136 87.9816C251.148 88.0275 251.155 88.0748 251.155 88.1223V95.5073C251.155 95.6021 251.13 95.6952 251.083 95.7772C251.036 95.8592 250.969 95.9272 250.887 95.9744L244.763 99.5431V106.616C244.763 106.809 244.662 106.987 244.497 107.084L231.714 114.532C231.685 114.549 231.653 114.559 231.621 114.571C231.609 114.575 231.598 114.582 231.585 114.586C231.496 114.609 231.402 114.609 231.313 114.586C231.298 114.582 231.285 114.574 231.271 114.568C231.241 114.557 231.211 114.548 231.183 114.532L218.402 107.084C218.321 107.036 218.254 106.968 218.207 106.886C218.16 106.804 218.135 106.711 218.135 106.616V84.4614C218.135 84.413 218.142 84.3658 218.154 84.3201C218.157 84.3046 218.167 84.2905 218.172 84.275C218.182 84.2467 218.191 84.2178 218.206 84.1915C218.216 84.174 218.231 84.1599 218.243 84.1437C218.258 84.1222 218.272 84.1 218.29 84.0811C218.305 84.0657 218.325 84.0542 218.342 84.0408C218.362 84.0246 218.379 84.0071 218.401 83.9943L224.792 80.2702C224.873 80.223 224.965 80.1982 225.058 80.1982C225.152 80.1982 225.243 80.223 225.324 80.2702L231.715 83.9943H231.716C231.737 84.0078 231.755 84.0246 231.775 84.0401C231.792 84.0535 231.811 84.0657 231.827 84.0805C231.845 84.1 231.858 84.1222 231.874 84.1437C231.886 84.1599 231.901 84.174 231.91 84.1915C231.926 84.2184 231.934 84.2467 231.945 84.275C231.95 84.2905 231.96 84.3046 231.964 84.3208C231.976 84.3666 231.982 84.4139 231.982 84.4614V98.2992L237.308 95.1957V88.1216C237.308 88.0745 237.314 88.0267 237.326 87.9816C237.331 87.9655 237.339 87.9513 237.345 87.9358C237.355 87.9076 237.365 87.8786 237.379 87.8524C237.389 87.8349 237.404 87.8208 237.415 87.8046C237.431 87.7831 237.444 87.7608 237.463 87.742C237.478 87.7265 237.498 87.7151 237.515 87.7016C237.535 87.6855 237.552 87.668 237.574 87.6552L243.965 83.931C244.046 83.8838 244.138 83.859 244.231 83.859C244.325 83.859 244.417 83.8838 244.497 83.931L250.888 87.6552C250.911 87.6686 250.928 87.6855 250.948 87.7009C250.965 87.7144 250.984 87.7265 250.999 87.7413C251.018 87.7608 251.031 87.7831 251.047 87.8046C251.059 87.8208 251.074 87.8349 251.083 87.8524C251.098 87.8786 251.107 87.9076 251.118 87.9358C251.124 87.9513 251.132 87.9655 251.136 87.9816ZM250.089 95.1957V89.0545L247.853 90.3576L244.763 92.1581V98.2992L250.09 95.1957H250.089ZM243.699 106.305V100.16L240.66 101.916L231.982 106.929V113.132L243.699 106.305ZM219.2 85.3936V106.305L230.916 113.132V106.93L224.796 103.424L224.794 103.423L224.791 103.421C224.77 103.409 224.753 103.392 224.734 103.377C224.717 103.363 224.698 103.353 224.683 103.338L224.682 103.336C224.665 103.319 224.653 103.298 224.638 103.279C224.625 103.261 224.609 103.246 224.598 103.227L224.597 103.225C224.585 103.205 224.578 103.18 224.569 103.157C224.561 103.137 224.549 103.118 224.544 103.097C224.538 103.071 224.536 103.044 224.534 103.017C224.531 102.997 224.526 102.977 224.526 102.957V102.956V88.4972L221.437 86.696L219.2 85.3936ZM225.059 81.3592L219.734 84.4614L225.058 87.5636L230.382 84.4608L225.058 81.3592H225.059ZM227.828 100.72L230.917 98.9198V85.3936L228.68 86.6967L225.591 88.4972V102.023L227.828 100.72ZM244.231 85.0201L238.907 88.1223L244.231 91.2245L249.555 88.1216L244.231 85.0201ZM243.699 92.1581L240.609 90.3576L238.373 89.0545V95.1957L241.462 96.9955L243.699 98.2992V92.1581ZM231.448 105.997L239.257 101.485L243.161 99.2301L237.841 96.1299L231.716 99.6992L226.133 102.952L231.448 105.997Z" fill="#FF2D20"/>
</g>
<line x1="235.26" y1="125.286" x2="235.26" y2="157.324" stroke="#FF2D20"/>
<line x1="99.4878" y1="156.825" x2="354.903" y2="156.825" stroke="#FF2D20"/>
<rect x="63.5" y="178.293" width="71.9757" height="71.9757" fill="white" stroke="#FF2D20"/>
<rect x="148.935" y="178.293" width="71.9757" height="71.9757" fill="white" stroke="#FF2D20"/>
<rect x="234.37" y="178.293" width="71.9757" height="71.9757" fill="white" stroke="#FF2D20"/>
<rect x="319.805" y="178.293" width="71.9757" height="71.9757" fill="white" stroke="#FF2D20"/>
<line x1="99.9878" y1="156.435" x2="99.9878" y2="177.793" stroke="#FF2D20"/>
<line x1="185.423" y1="156.435" x2="185.423" y2="177.793" stroke="#FF2D20"/>
<line x1="270.858" y1="156.435" x2="270.858" y2="177.793" stroke="#FF2D20"/>
<line x1="355.403" y1="156.435" x2="355.403" y2="177.793" stroke="#FF2D20"/>
<rect x="156.055" y="185.413" width="71.9757" height="71.9757" fill="white" stroke="#262437"/>
<path d="M184.626 224.368C183.082 225.239 181.834 226.552 181.041 228.137C180.249 229.723 179.947 231.509 180.176 233.267C181.934 233.496 183.72 233.195 185.306 232.402C186.892 231.609 188.204 230.361 189.076 228.817M180.176 222.884C182.821 223.199 185.283 224.394 187.167 226.277C189.05 228.16 190.245 230.622 190.559 233.267C191.87 232.511 192.967 231.434 193.745 230.136C194.524 228.838 194.959 227.363 195.009 225.851C197.499 224.975 199.674 223.38 201.258 221.268C202.842 219.156 203.765 216.621 203.908 213.985C203.908 212.805 203.44 211.673 202.605 210.838C201.771 210.004 200.639 209.535 199.459 209.535C196.822 209.679 194.288 210.601 192.176 212.185C190.064 213.769 188.469 215.944 187.593 218.435C186.08 218.485 184.605 218.919 183.308 219.698C182.01 220.477 180.932 221.573 180.176 222.884ZM195.009 216.951C195.009 217.345 195.165 217.722 195.443 218C195.721 218.278 196.099 218.435 196.492 218.435C196.885 218.435 197.263 218.278 197.541 218C197.819 217.722 197.975 217.345 197.975 216.951C197.975 216.558 197.819 216.181 197.541 215.903C197.263 215.624 196.885 215.468 196.492 215.468C196.099 215.468 195.721 215.624 195.443 215.903C195.165 216.181 195.009 216.558 195.009 216.951Z" stroke="#FF2D20" stroke-width="2" stroke-linecap="round" stroke-linejoin="round"/>
<rect x="70.6196" y="185.413" width="71.9757" height="71.9757" fill="white" stroke="#262437"/>
<path d="M94.7416 233.267H100.675V227.334H106.608V221.401H112.541V215.468H118.474M94.7416 219.918L105.124 209.535M105.124 209.535V215.468M105.124 209.535H99.1913" stroke="#FF2D20" stroke-width="2" stroke-linecap="round" stroke-linejoin="round"/>
<rect x="241.49" y="185.413" width="71.9757" height="71.9757" fill="white" stroke="#262437"/>
<path d="M271.544 219.919V213.986C271.544 212.412 272.169 210.903 273.282 209.79C274.395 208.678 275.904 208.053 277.477 208.053C279.051 208.053 280.56 208.678 281.673 209.79C282.785 210.903 283.41 212.412 283.41 213.986V219.919M267.095 222.885C267.095 222.098 267.407 221.344 267.963 220.788C268.52 220.231 269.274 219.919 270.061 219.919H284.894C285.68 219.919 286.435 220.231 286.991 220.788C287.548 221.344 287.86 222.098 287.86 222.885V231.785C287.86 232.571 287.548 233.326 286.991 233.882C286.435 234.439 285.68 234.751 284.894 234.751H270.061C269.274 234.751 268.52 234.439 267.963 233.882C267.407 233.326 267.095 232.571 267.095 231.785V222.885ZM275.994 227.335C275.994 227.728 276.15 228.106 276.429 228.384C276.707 228.662 277.084 228.818 277.477 228.818C277.871 228.818 278.248 228.662 278.526 228.384C278.804 228.106 278.961 227.728 278.961 227.335C278.961 226.942 278.804 226.564 278.526 226.286C278.248 226.008 277.871 225.852 277.477 225.852C277.084 225.852 276.707 226.008 276.429 226.286C276.15 226.564 275.994 226.942 275.994 227.335Z" stroke="#FF2D20" stroke-width="2" stroke-linecap="round" stroke-linejoin="round"/>
<rect x="326.924" y="185.413" width="71.9757" height="71.9757" fill="white" stroke="#262437"/>
<path d="M376.261 221.402C376.261 218.823 375.514 216.299 374.11 214.136C372.707 211.972 370.706 210.262 368.351 209.211C365.996 208.16 363.386 207.814 360.839 208.215C358.291 208.616 355.914 209.746 353.995 211.468C352.076 213.191 350.697 215.433 350.024 217.923C349.352 220.413 349.416 223.044 350.207 225.498C350.998 227.953 352.484 230.126 354.484 231.754C356.484 233.382 358.912 234.397 361.476 234.674M350.453 216.952H375.371M350.453 225.852H359.946M362.171 208.053C360.285 211.074 359.061 214.46 358.579 217.989C358.097 221.517 358.367 225.108 359.373 228.524M363.654 208.053C365.89 211.634 367.19 215.719 367.435 219.934M371.515 234.48L368.293 236.168C368.198 236.217 368.09 236.24 367.983 236.232C367.875 236.224 367.772 236.186 367.685 236.123C367.597 236.06 367.529 235.974 367.488 235.875C367.447 235.775 367.434 235.666 367.451 235.56L368.066 231.983L365.46 229.452C365.383 229.376 365.328 229.281 365.301 229.176C365.275 229.071 365.279 228.961 365.313 228.858C365.346 228.755 365.408 228.664 365.491 228.594C365.574 228.525 365.675 228.48 365.782 228.465L369.384 227.943L370.994 224.69C371.043 224.593 371.117 224.512 371.209 224.455C371.301 224.398 371.407 224.368 371.515 224.368C371.623 224.368 371.729 224.398 371.821 224.455C371.913 224.512 371.987 224.593 372.036 224.69L373.646 227.943L377.248 228.465C377.355 228.481 377.455 228.526 377.538 228.595C377.62 228.664 377.682 228.756 377.715 228.858C377.749 228.961 377.753 229.071 377.727 229.176C377.701 229.281 377.647 229.376 377.57 229.452L374.964 231.983L375.578 235.558C375.596 235.665 375.584 235.774 375.543 235.874C375.503 235.975 375.435 236.061 375.347 236.125C375.26 236.188 375.156 236.226 375.048 236.234C374.94 236.241 374.832 236.218 374.737 236.168L371.515 234.48Z" stroke="#FF2D20" stroke-width="2" stroke-linecap="round" stroke-linejoin="round"/>
<path d="M0.5 8C0.5 3.85786 3.85786 0.5 8 0.5H455C459.142 0.5 462.5 3.85787 462.5 8V25.5H0.5V8Z" fill="white"/>
<path d="M0.5 8C0.5 3.85786 3.85786 0.5 8 0.5H455C459.142 0.5 462.5 3.85787 462.5 8V25.5H0.5V8Z" stroke="#E0E0E0"/>
<circle cx="15" cy="13" r="4" fill="#EB5757"/>
<circle cx="27" cy="13" r="4" fill="#F2994A"/>
<circle cx="39" cy="13" r="4" fill="#27AE60"/>
<g filter="url(#filter0_dd_2729_1953)">
<rect x="221" y="294" width="221" height="62" rx="8" fill="white"/>
<rect x="221.5" y="294.5" width="220" height="61" rx="7.5" stroke="#E0E0E0"/>
<rect x="234" y="308" width="16" height="16" rx="8" fill="#219653"/>
<path d="M237.917 316L240.833 318.916L246.667 313.083" stroke="white" stroke-linecap="round" stroke-linejoin="round"/>
<path d="M267.4 314.092C267.096 313.795 266.738 313.568 266.328 313.412C265.918 313.252 265.482 313.172 265.021 313.172C264.549 313.172 264.113 313.254 263.715 313.418C263.32 313.582 262.979 313.816 262.689 314.121C262.404 314.426 262.182 314.787 262.021 315.205C261.865 315.623 261.787 316.084 261.787 316.588C261.787 317.092 261.865 317.555 262.021 317.977C262.178 318.398 262.398 318.764 262.684 319.072C262.973 319.381 263.312 319.619 263.703 319.787C264.098 319.955 264.529 320.039 264.998 320.039C265.42 320.039 265.809 319.971 266.164 319.834C266.52 319.697 266.832 319.502 267.102 319.248C267.371 318.994 267.59 318.689 267.758 318.334C267.926 317.979 268.033 317.586 268.08 317.156H265.086V316.154H269.223L269.258 316.635C269.258 317.303 269.154 317.914 268.947 318.469C268.74 319.023 268.445 319.504 268.062 319.91C267.684 320.312 267.232 320.625 266.709 320.848C266.189 321.066 265.615 321.176 264.986 321.176C264.338 321.176 263.738 321.062 263.188 320.836C262.641 320.605 262.162 320.285 261.752 319.875C261.346 319.461 261.029 318.977 260.803 318.422C260.58 317.867 260.469 317.266 260.469 316.617C260.469 315.961 260.582 315.355 260.809 314.801C261.035 314.242 261.352 313.756 261.758 313.342C262.168 312.928 262.648 312.607 263.199 312.381C263.75 312.15 264.35 312.035 264.998 312.035C265.611 312.035 266.195 312.141 266.75 312.352C267.309 312.562 267.805 312.865 268.238 313.26L267.4 314.092ZM271.771 321H270.57V315.141H271.619L271.666 316.254C271.869 315.867 272.148 315.566 272.504 315.352C272.863 315.133 273.275 315.023 273.74 315.023C273.854 315.023 273.967 315.031 274.08 315.047C274.197 315.059 274.314 315.078 274.432 315.105L274.279 316.189C274.053 316.131 273.83 316.102 273.611 316.102C273.248 316.102 272.928 316.189 272.65 316.365C272.373 316.537 272.156 316.775 272 317.08C271.848 317.385 271.771 317.736 271.771 318.135V321ZM278.012 321.117C277.426 321.117 276.898 320.984 276.43 320.719C275.961 320.453 275.592 320.092 275.322 319.635C275.053 319.174 274.918 318.652 274.918 318.07C274.918 317.492 275.053 316.975 275.322 316.518C275.592 316.057 275.961 315.693 276.43 315.428C276.898 315.158 277.426 315.023 278.012 315.023C278.602 315.023 279.129 315.158 279.594 315.428C280.059 315.693 280.424 316.057 280.689 316.518C280.959 316.975 281.094 317.492 281.094 318.07C281.094 318.652 280.959 319.174 280.689 319.635C280.424 320.092 280.059 320.453 279.594 320.719C279.129 320.984 278.602 321.117 278.012 321.117ZM278.006 320.039C278.361 320.039 278.678 319.953 278.955 319.781C279.236 319.605 279.457 319.371 279.617 319.078C279.781 318.781 279.863 318.443 279.863 318.064C279.863 317.693 279.781 317.361 279.617 317.068C279.457 316.771 279.236 316.537 278.955 316.365C278.678 316.189 278.361 316.102 278.006 316.102C277.654 316.102 277.338 316.189 277.057 316.365C276.775 316.537 276.553 316.771 276.389 317.068C276.229 317.361 276.148 317.693 276.148 318.064C276.148 318.443 276.229 318.781 276.389 319.078C276.553 319.371 276.775 319.605 277.057 319.781C277.338 319.953 277.654 320.039 278.006 320.039ZM288.805 321H287.422L286.227 316.811L285.031 321H283.648L281.773 315.141H283.045L284.328 319.629L285.682 315.141H286.771L288.125 319.635L289.414 315.141H290.686L288.805 321ZM297.037 323.93H295.742L296.967 320.965L294.113 315.141H295.455L297.541 319.588L299.381 315.141H300.67L297.037 323.93ZM304.273 321.117C303.688 321.117 303.16 320.984 302.691 320.719C302.223 320.453 301.854 320.092 301.584 319.635C301.314 319.174 301.18 318.652 301.18 318.07C301.18 317.492 301.314 316.975 301.584 316.518C301.854 316.057 302.223 315.693 302.691 315.428C303.16 315.158 303.688 315.023 304.273 315.023C304.863 315.023 305.391 315.158 305.855 315.428C306.32 315.693 306.686 316.057 306.951 316.518C307.221 316.975 307.355 317.492 307.355 318.07C307.355 318.652 307.221 319.174 306.951 319.635C306.686 320.092 306.32 320.453 305.855 320.719C305.391 320.984 304.863 321.117 304.273 321.117ZM304.268 320.039C304.623 320.039 304.939 319.953 305.217 319.781C305.498 319.605 305.719 319.371 305.879 319.078C306.043 318.781 306.125 318.443 306.125 318.064C306.125 317.693 306.043 317.361 305.879 317.068C305.719 316.771 305.498 316.537 305.217 316.365C304.939 316.189 304.623 316.102 304.268 316.102C303.916 316.102 303.6 316.189 303.318 316.365C303.037 316.537 302.814 316.771 302.65 317.068C302.49 317.361 302.41 317.693 302.41 318.064C302.41 318.443 302.49 318.781 302.65 319.078C302.814 319.371 303.037 319.605 303.318 319.781C303.6 319.953 303.916 320.039 304.268 320.039ZM314.1 321H313.08L313.039 320.057C312.824 320.4 312.543 320.664 312.195 320.848C311.852 321.027 311.443 321.117 310.971 321.117C310.205 321.117 309.6 320.885 309.154 320.42C308.713 319.951 308.492 319.311 308.492 318.498V315.141H309.693V318.322C309.693 318.842 309.834 319.256 310.115 319.564C310.396 319.873 310.775 320.027 311.252 320.027C311.744 320.027 312.141 319.863 312.441 319.535C312.746 319.203 312.898 318.768 312.898 318.229V315.141H314.1V321ZM316.994 321H315.793V315.141H316.842L316.889 316.254C317.092 315.867 317.371 315.566 317.727 315.352C318.086 315.133 318.498 315.023 318.963 315.023C319.076 315.023 319.189 315.031 319.303 315.047C319.42 315.059 319.537 315.078 319.654 315.105L319.502 316.189C319.275 316.131 319.053 316.102 318.834 316.102C318.471 316.102 318.15 316.189 317.873 316.365C317.596 316.537 317.379 316.775 317.223 317.08C317.07 317.385 316.994 317.736 316.994 318.135V321ZM324.494 321H323.434V312.211H324.635V315.891C324.9 315.617 325.211 315.404 325.566 315.252C325.926 315.1 326.316 315.023 326.738 315.023C327.305 315.023 327.809 315.156 328.25 315.422C328.691 315.688 329.039 316.051 329.293 316.512C329.551 316.969 329.68 317.488 329.68 318.07C329.68 318.648 329.551 319.168 329.293 319.629C329.039 320.09 328.691 320.453 328.25 320.719C327.809 320.984 327.305 321.117 326.738 321.117C326.293 321.117 325.883 321.033 325.508 320.865C325.137 320.693 324.818 320.459 324.553 320.162L324.494 321ZM326.545 320.039C326.908 320.039 327.232 319.953 327.518 319.781C327.807 319.609 328.033 319.375 328.197 319.078C328.365 318.781 328.449 318.445 328.449 318.07C328.449 317.695 328.365 317.359 328.197 317.062C328.033 316.766 327.807 316.531 327.518 316.359C327.232 316.188 326.908 316.102 326.545 316.102C326.197 316.102 325.883 316.18 325.602 316.336C325.324 316.492 325.1 316.707 324.928 316.98C324.756 317.254 324.658 317.566 324.635 317.918V318.217C324.658 318.564 324.754 318.877 324.922 319.154C325.094 319.428 325.318 319.645 325.596 319.805C325.877 319.961 326.193 320.039 326.545 320.039ZM336.424 321H335.404L335.363 320.057C335.148 320.4 334.867 320.664 334.52 320.848C334.176 321.027 333.768 321.117 333.295 321.117C332.529 321.117 331.924 320.885 331.479 320.42C331.037 319.951 330.816 319.311 330.816 318.498V315.141H332.018V318.322C332.018 318.842 332.158 319.256 332.439 319.564C332.721 319.873 333.1 320.027 333.576 320.027C334.068 320.027 334.465 319.863 334.766 319.535C335.07 319.203 335.223 318.768 335.223 318.229V315.141H336.424V321ZM337.707 320.49L338 319.412C338.133 319.545 338.291 319.662 338.475 319.764C338.662 319.865 338.859 319.945 339.066 320.004C339.277 320.059 339.484 320.086 339.688 320.086C340.008 320.086 340.266 320.018 340.461 319.881C340.656 319.744 340.754 319.562 340.754 319.336C340.754 319.168 340.699 319.029 340.59 318.92C340.484 318.807 340.342 318.709 340.162 318.627C339.986 318.545 339.797 318.465 339.594 318.387C339.332 318.289 339.07 318.176 338.809 318.047C338.551 317.918 338.334 317.746 338.158 317.531C337.982 317.316 337.895 317.033 337.895 316.682C337.895 316.346 337.98 316.055 338.152 315.809C338.324 315.559 338.564 315.365 338.873 315.229C339.182 315.092 339.537 315.023 339.939 315.023C340.564 315.023 341.184 315.18 341.797 315.492L341.445 316.518C341.32 316.428 341.172 316.348 341 316.277C340.828 316.207 340.652 316.152 340.473 316.113C340.293 316.07 340.127 316.049 339.975 316.049C339.721 316.049 339.516 316.105 339.359 316.219C339.207 316.332 339.131 316.484 339.131 316.676C339.131 316.793 339.168 316.9 339.242 316.998C339.316 317.092 339.434 317.186 339.594 317.279C339.758 317.369 339.979 317.471 340.256 317.584C340.521 317.689 340.787 317.811 341.053 317.947C341.318 318.084 341.539 318.262 341.715 318.48C341.895 318.699 341.984 318.986 341.984 319.342C341.984 319.693 341.891 320.004 341.703 320.273C341.516 320.539 341.254 320.746 340.918 320.895C340.586 321.043 340.199 321.117 339.758 321.117C339.027 321.117 338.344 320.908 337.707 320.49ZM343.883 313.441C343.699 313.441 343.545 313.377 343.42 313.248C343.295 313.119 343.232 312.963 343.232 312.779C343.232 312.596 343.295 312.441 343.42 312.316C343.545 312.188 343.699 312.123 343.883 312.123C344.07 312.123 344.227 312.188 344.352 312.316C344.48 312.441 344.545 312.596 344.545 312.779C344.545 312.963 344.48 313.119 344.352 313.248C344.227 313.377 344.07 313.441 343.883 313.441ZM344.48 321H343.279V315.141H344.48V321ZM351.799 321H350.598V317.818C350.598 317.299 350.455 316.885 350.17 316.576C349.889 316.268 349.51 316.113 349.033 316.113C348.541 316.113 348.145 316.277 347.844 316.605C347.543 316.934 347.393 317.369 347.393 317.912V321H346.191V315.141H347.205L347.246 316.084C347.461 315.74 347.742 315.479 348.09 315.299C348.438 315.115 348.846 315.023 349.314 315.023C350.084 315.023 350.689 315.256 351.131 315.721C351.576 316.186 351.799 316.826 351.799 317.643V321ZM358.602 320.303C357.875 320.846 357.076 321.117 356.205 321.117C355.584 321.117 355.027 320.98 354.535 320.707C354.043 320.434 353.654 320.061 353.369 319.588C353.084 319.115 352.941 318.582 352.941 317.988C352.941 317.422 353.072 316.916 353.334 316.471C353.596 316.021 353.953 315.668 354.406 315.41C354.859 315.152 355.373 315.023 355.947 315.023C356.541 315.023 357.062 315.164 357.512 315.445C357.965 315.727 358.316 316.119 358.566 316.623C358.82 317.123 358.947 317.703 358.947 318.363V318.551H354.242C354.312 318.855 354.445 319.123 354.641 319.354C354.836 319.58 355.078 319.758 355.367 319.887C355.656 320.012 355.982 320.074 356.346 320.074C356.994 320.074 357.59 319.863 358.133 319.441L358.602 320.303ZM354.189 317.719H357.828C357.789 317.391 357.688 317.105 357.523 316.863C357.359 316.617 357.146 316.426 356.885 316.289C356.627 316.148 356.336 316.078 356.012 316.078C355.684 316.078 355.389 316.148 355.127 316.289C354.865 316.426 354.652 316.617 354.488 316.863C354.328 317.109 354.229 317.395 354.189 317.719ZM359.797 320.49L360.09 319.412C360.223 319.545 360.381 319.662 360.564 319.764C360.752 319.865 360.949 319.945 361.156 320.004C361.367 320.059 361.574 320.086 361.777 320.086C362.098 320.086 362.355 320.018 362.551 319.881C362.746 319.744 362.844 319.562 362.844 319.336C362.844 319.168 362.789 319.029 362.68 318.92C362.574 318.807 362.432 318.709 362.252 318.627C362.076 318.545 361.887 318.465 361.684 318.387C361.422 318.289 361.16 318.176 360.898 318.047C360.641 317.918 360.424 317.746 360.248 317.531C360.072 317.316 359.984 317.033 359.984 316.682C359.984 316.346 360.07 316.055 360.242 315.809C360.414 315.559 360.654 315.365 360.963 315.229C361.271 315.092 361.627 315.023 362.029 315.023C362.654 315.023 363.273 315.18 363.887 315.492L363.535 316.518C363.41 316.428 363.262 316.348 363.09 316.277C362.918 316.207 362.742 316.152 362.562 316.113C362.383 316.07 362.217 316.049 362.064 316.049C361.811 316.049 361.605 316.105 361.449 316.219C361.297 316.332 361.221 316.484 361.221 316.676C361.221 316.793 361.258 316.9 361.332 316.998C361.406 317.092 361.523 317.186 361.684 317.279C361.848 317.369 362.068 317.471 362.346 317.584C362.611 317.689 362.877 317.811 363.143 317.947C363.408 318.084 363.629 318.262 363.805 318.48C363.984 318.699 364.074 318.986 364.074 319.342C364.074 319.693 363.98 320.004 363.793 320.273C363.605 320.539 363.344 320.746 363.008 320.895C362.676 321.043 362.289 321.117 361.848 321.117C361.117 321.117 360.434 320.908 359.797 320.49ZM364.941 320.49L365.234 319.412C365.367 319.545 365.525 319.662 365.709 319.764C365.896 319.865 366.094 319.945 366.301 320.004C366.512 320.059 366.719 320.086 366.922 320.086C367.242 320.086 367.5 320.018 367.695 319.881C367.891 319.744 367.988 319.562 367.988 319.336C367.988 319.168 367.934 319.029 367.824 318.92C367.719 318.807 367.576 318.709 367.396 318.627C367.221 318.545 367.031 318.465 366.828 318.387C366.566 318.289 366.305 318.176 366.043 318.047C365.785 317.918 365.568 317.746 365.393 317.531C365.217 317.316 365.129 317.033 365.129 316.682C365.129 316.346 365.215 316.055 365.387 315.809C365.559 315.559 365.799 315.365 366.107 315.229C366.416 315.092 366.771 315.023 367.174 315.023C367.799 315.023 368.418 315.18 369.031 315.492L368.68 316.518C368.555 316.428 368.406 316.348 368.234 316.277C368.062 316.207 367.887 316.152 367.707 316.113C367.527 316.07 367.361 316.049 367.209 316.049C366.955 316.049 366.75 316.105 366.594 316.219C366.441 316.332 366.365 316.484 366.365 316.676C366.365 316.793 366.402 316.9 366.477 316.998C366.551 317.092 366.668 317.186 366.828 317.279C366.992 317.369 367.213 317.471 367.49 317.584C367.756 317.689 368.021 317.811 368.287 317.947C368.553 318.084 368.773 318.262 368.949 318.48C369.129 318.699 369.219 318.986 369.219 319.342C369.219 319.693 369.125 320.004 368.938 320.273C368.75 320.539 368.488 320.746 368.152 320.895C367.82 321.043 367.434 321.117 366.992 321.117C366.262 321.117 365.578 320.908 364.941 320.49ZM379.812 321H378.43L377.234 316.811L376.039 321H374.656L372.781 315.141H374.053L375.336 319.629L376.689 315.141H377.779L379.133 319.635L380.422 315.141H381.693L379.812 321ZM383.434 313.441C383.25 313.441 383.096 313.377 382.971 313.248C382.846 313.119 382.783 312.963 382.783 312.779C382.783 312.596 382.846 312.441 382.971 312.316C383.096 312.188 383.25 312.123 383.434 312.123C383.621 312.123 383.777 312.188 383.902 312.316C384.031 312.441 384.096 312.596 384.096 312.779C384.096 312.963 384.031 313.119 383.902 313.248C383.777 313.377 383.621 313.441 383.434 313.441ZM384.031 321H382.83V315.141H384.031V321ZM389.375 320.854C388.965 321.029 388.568 321.117 388.186 321.117C387.803 321.117 387.467 321.035 387.178 320.871C386.893 320.707 386.668 320.477 386.504 320.18C386.344 319.879 386.264 319.533 386.264 319.143V316.213H385.238V315.141H386.322V313.676H387.465V315.141H389.176V316.213H387.465V318.92C387.465 319.264 387.557 319.537 387.74 319.74C387.928 319.939 388.168 320.039 388.461 320.039C388.707 320.039 388.951 319.965 389.193 319.816L389.375 320.854ZM390.559 321V312.211H391.76V315.955C392.193 315.334 392.852 315.023 393.734 315.023C394.496 315.023 395.092 315.254 395.521 315.715C395.951 316.176 396.166 316.818 396.166 317.643V321H394.965V317.936C394.965 317.354 394.824 316.902 394.543 316.582C394.266 316.262 393.877 316.102 393.377 316.102C392.873 316.102 392.477 316.266 392.188 316.594C391.902 316.918 391.76 317.365 391.76 317.936V321H390.559ZM260.844 339V330.211H266.322V331.348H262.133V333.979H266.082V335.115H262.133V337.863H266.381V339H260.844ZM268.83 339H267.254L269.762 335.982L267.424 333.141H269.029L270.564 335.098L272.076 333.141H273.652L271.35 335.959L273.857 339H272.246L270.553 336.838L268.83 339ZM275.99 341.93H274.789V333.141H275.85L275.914 333.979C276.18 333.682 276.498 333.449 276.869 333.281C277.244 333.109 277.654 333.023 278.1 333.023C278.662 333.023 279.164 333.156 279.605 333.422C280.051 333.688 280.4 334.051 280.654 334.512C280.912 334.969 281.041 335.488 281.041 336.07C281.041 336.648 280.912 337.168 280.654 337.629C280.4 338.09 280.051 338.453 279.605 338.719C279.164 338.984 278.662 339.117 278.1 339.117C277.678 339.117 277.287 339.041 276.928 338.889C276.568 338.736 276.256 338.523 275.99 338.25V341.93ZM277.906 338.027C278.277 338.027 278.605 337.943 278.891 337.775C279.176 337.607 279.398 337.377 279.559 337.084C279.723 336.787 279.805 336.447 279.805 336.064C279.805 335.682 279.723 335.344 279.559 335.051C279.398 334.754 279.176 334.521 278.891 334.354C278.605 334.186 278.279 334.102 277.912 334.102C277.564 334.102 277.25 334.18 276.969 334.336C276.691 334.488 276.465 334.699 276.289 334.969C276.117 335.238 276.018 335.545 275.99 335.889V336.252C276.018 336.596 276.115 336.902 276.283 337.172C276.455 337.438 276.68 337.646 276.957 337.799C277.238 337.951 277.555 338.027 277.906 338.027ZM283.502 339H282.301V333.141H283.35L283.396 334.254C283.6 333.867 283.879 333.566 284.234 333.352C284.594 333.133 285.006 333.023 285.471 333.023C285.584 333.023 285.697 333.031 285.811 333.047C285.928 333.059 286.045 333.078 286.162 333.105L286.01 334.189C285.783 334.131 285.561 334.102 285.342 334.102C284.979 334.102 284.658 334.189 284.381 334.365C284.104 334.537 283.887 334.775 283.73 335.08C283.578 335.385 283.502 335.736 283.502 336.135V339ZM292.309 338.303C291.582 338.846 290.783 339.117 289.912 339.117C289.291 339.117 288.734 338.98 288.242 338.707C287.75 338.434 287.361 338.061 287.076 337.588C286.791 337.115 286.648 336.582 286.648 335.988C286.648 335.422 286.779 334.916 287.041 334.471C287.303 334.021 287.66 333.668 288.113 333.41C288.566 333.152 289.08 333.023 289.654 333.023C290.248 333.023 290.77 333.164 291.219 333.445C291.672 333.727 292.023 334.119 292.273 334.623C292.527 335.123 292.654 335.703 292.654 336.363V336.551H287.949C288.02 336.855 288.152 337.123 288.348 337.354C288.543 337.58 288.785 337.758 289.074 337.887C289.363 338.012 289.689 338.074 290.053 338.074C290.701 338.074 291.297 337.863 291.84 337.441L292.309 338.303ZM287.896 335.719H291.535C291.496 335.391 291.395 335.105 291.23 334.863C291.066 334.617 290.854 334.426 290.592 334.289C290.334 334.148 290.043 334.078 289.719 334.078C289.391 334.078 289.096 334.148 288.834 334.289C288.572 334.426 288.359 334.617 288.195 334.863C288.035 335.109 287.936 335.395 287.896 335.719ZM293.504 338.49L293.797 337.412C293.93 337.545 294.088 337.662 294.271 337.764C294.459 337.865 294.656 337.945 294.863 338.004C295.074 338.059 295.281 338.086 295.484 338.086C295.805 338.086 296.062 338.018 296.258 337.881C296.453 337.744 296.551 337.562 296.551 337.336C296.551 337.168 296.496 337.029 296.387 336.92C296.281 336.807 296.139 336.709 295.959 336.627C295.783 336.545 295.594 336.465 295.391 336.387C295.129 336.289 294.867 336.176 294.605 336.047C294.348 335.918 294.131 335.746 293.955 335.531C293.779 335.316 293.691 335.033 293.691 334.682C293.691 334.346 293.777 334.055 293.949 333.809C294.121 333.559 294.361 333.365 294.67 333.229C294.979 333.092 295.334 333.023 295.736 333.023C296.361 333.023 296.98 333.18 297.594 333.492L297.242 334.518C297.117 334.428 296.969 334.348 296.797 334.277C296.625 334.207 296.449 334.152 296.27 334.113C296.09 334.07 295.924 334.049 295.771 334.049C295.518 334.049 295.312 334.105 295.156 334.219C295.004 334.332 294.928 334.484 294.928 334.676C294.928 334.793 294.965 334.9 295.039 334.998C295.113 335.092 295.23 335.186 295.391 335.279C295.555 335.369 295.775 335.471 296.053 335.584C296.318 335.689 296.584 335.811 296.85 335.947C297.115 336.084 297.336 336.262 297.512 336.48C297.691 336.699 297.781 336.986 297.781 337.342C297.781 337.693 297.688 338.004 297.5 338.273C297.312 338.539 297.051 338.746 296.715 338.895C296.383 339.043 295.996 339.117 295.555 339.117C294.824 339.117 294.141 338.908 293.504 338.49ZM299.68 331.441C299.496 331.441 299.342 331.377 299.217 331.248C299.092 331.119 299.029 330.963 299.029 330.779C299.029 330.596 299.092 330.441 299.217 330.316C299.342 330.188 299.496 330.123 299.68 330.123C299.867 330.123 300.023 330.188 300.148 330.316C300.277 330.441 300.342 330.596 300.342 330.779C300.342 330.963 300.277 331.119 300.148 331.248C300.023 331.377 299.867 331.441 299.68 331.441ZM300.277 339H299.076V333.141H300.277V339ZM307.561 333.141L305.123 339H303.957L301.52 333.141H302.809L304.549 337.764L306.289 333.141H307.561Z" fill="#0C082F"/>
</g>
<defs>
<filter id="filter0_dd_2729_1953" x="209" y="294" width="245" height="86" filterUnits="userSpaceOnUse" color-interpolation-filters="sRGB">
<feFlood flood-opacity="0" result="BackgroundImageFix"/>
<feColorMatrix in="SourceAlpha" type="matrix" values="0 0 0 0 0 0 0 0 0 0 0 0 0 0 0 0 0 0 127 0" result="hardAlpha"/>
<feMorphology radius="2" operator="erode" in="SourceAlpha" result="effect1_dropShadow_2729_1953"/>
<feOffset dy="4"/>
<feGaussianBlur stdDeviation="3"/>
<feComposite in2="hardAlpha" operator="out"/>
<feColorMatrix type="matrix" values="0 0 0 0 0 0 0 0 0 0 0 0 0 0 0 0 0 0 0.03 0"/>
<feBlend mode="normal" in2="BackgroundImageFix" result="effect1_dropShadow_2729_1953"/>
<feColorMatrix in="SourceAlpha" type="matrix" values="0 0 0 0 0 0 0 0 0 0 0 0 0 0 0 0 0 0 127 0" result="hardAlpha"/>
<feMorphology radius="4" operator="erode" in="SourceAlpha" result="effect2_dropShadow_2729_1953"/>
<feOffset dy="12"/>
<feGaussianBlur stdDeviation="8"/>
<feComposite in2="hardAlpha" operator="out"/>
<feColorMatrix type="matrix" values="0 0 0 0 0 0 0 0 0 0 0 0 0 0 0 0 0 0 0.08 0"/>
<feBlend mode="normal" in2="effect1_dropShadow_2729_1953" result="effect2_dropShadow_2729_1953"/>
<feBlend mode="normal" in="SourceGraphic" in2="effect2_dropShadow_2729_1953" result="shape"/>
</filter>
<linearGradient id="paint0_linear_2729_1953" x1="195.602" y1="66.9952" x2="275.253" y2="138.636" gradientUnits="userSpaceOnUse">
<stop stop-color="#EFE2FF"/>
<stop offset="1" stop-color="#E7F3FF"/>
</linearGradient>
<clipPath id="clip0_2729_1953">
<rect width="33.25" height="35" fill="white" transform="translate(218.135 80.1982)"/>
</clipPath>
</defs>
</svg>
