<svg width="144" height="148" viewBox="0 0 144 148" fill="none" xmlns="http://www.w3.org/2000/svg">
<path fill-rule="evenodd" clip-rule="evenodd" d="M143.921 33.8573C143.974 34.0539 144.001 34.2566 144.002 34.4602V66.1102C144.002 66.5164 143.895 66.9155 143.691 67.267C143.488 67.6185 143.195 67.91 142.842 68.1121L116.278 83.4063V113.721C116.278 114.546 115.839 115.307 115.124 115.723L59.6731 147.644C59.5462 147.716 59.4078 147.762 59.2693 147.811C59.2174 147.828 59.1683 147.86 59.1135 147.875C58.7259 147.977 58.3185 147.977 57.9308 147.875C57.8674 147.857 57.8097 147.823 57.7491 147.8C57.6222 147.753 57.4895 147.713 57.3683 147.644L1.9289 115.723C1.57671 115.52 1.28408 115.229 1.08049 114.877C0.876908 114.526 0.769566 114.127 0.769287 113.721L0.769287 18.7708C0.769287 18.5631 0.798133 18.3612 0.850056 18.165C0.867364 18.0987 0.907749 18.0381 0.930826 17.9717C0.974095 17.8506 1.01448 17.7266 1.07794 17.614C1.12121 17.5391 1.18467 17.4785 1.23659 17.4092C1.30294 17.3169 1.36352 17.2217 1.4414 17.141C1.50775 17.0746 1.59429 17.0256 1.66929 16.9679C1.75294 16.8987 1.82794 16.8237 1.92313 16.7689L29.6472 0.808282C29.9982 0.606303 30.3961 0.5 30.801 0.5C31.206 0.5 31.6039 0.606303 31.9549 0.808282L59.676 16.7689H59.6818C59.7741 16.8265 59.852 16.8987 59.9356 16.965C60.0106 17.0227 60.0943 17.0746 60.1606 17.1381C60.2414 17.2217 60.2991 17.3169 60.3683 17.4092C60.4174 17.4785 60.4837 17.5391 60.5241 17.614C60.5904 17.7294 60.6279 17.8506 60.6741 17.9717C60.6972 18.0381 60.7376 18.0987 60.7549 18.1679C60.808 18.3645 60.8351 18.5672 60.8356 18.7708V78.0756L83.9356 64.7746V34.4573C83.9356 34.2554 83.9645 34.0506 84.0164 33.8573C84.0366 33.7881 84.0741 33.7275 84.0972 33.6612C84.1433 33.54 84.1837 33.416 84.2472 33.3035C84.2904 33.2285 84.3539 33.1679 84.4029 33.0987C84.4722 33.0064 84.5299 32.9112 84.6106 32.8304C84.677 32.764 84.7606 32.715 84.8356 32.6573C84.9222 32.5881 84.9972 32.5131 85.0895 32.4583L112.816 16.4977C113.167 16.2954 113.565 16.189 113.97 16.189C114.375 16.189 114.773 16.2954 115.124 16.4977L142.845 32.4583C142.943 32.516 143.018 32.5881 143.105 32.6544C143.177 32.7121 143.261 32.764 143.327 32.8275C143.408 32.9112 143.465 33.0064 143.535 33.0987C143.587 33.1679 143.65 33.2285 143.69 33.3035C143.757 33.416 143.794 33.54 143.84 33.6612C143.866 33.7275 143.904 33.7881 143.921 33.8573ZM139.381 64.7746V38.4554L129.68 44.04L116.278 51.7564V78.0756L139.384 64.7746H139.381ZM111.66 112.385V86.0487L98.477 93.5775L60.8328 115.062V141.647L111.66 112.385ZM5.39044 22.766V112.385L56.2116 141.644V115.065L29.6616 100.039L29.6529 100.033L29.6414 100.027C29.552 99.9756 29.477 99.9006 29.3933 99.8371C29.3212 99.7794 29.2376 99.7333 29.1741 99.6698L29.1683 99.6612C29.0933 99.589 29.0414 99.4996 28.9779 99.4188C28.9202 99.341 28.851 99.2746 28.8049 99.1939L28.802 99.1852C28.7501 99.0987 28.7183 98.9948 28.6808 98.8967C28.6433 98.8102 28.5943 98.7294 28.5712 98.6371C28.5424 98.5275 28.5366 98.4092 28.5251 98.2967C28.5135 98.2102 28.4904 98.1237 28.4904 98.0371V98.0313V36.0669L15.0914 28.3477L5.39044 22.766ZM30.8039 5.47559L7.70679 18.7708L30.7981 32.066L53.8924 18.7679L30.7981 5.47559H30.8039ZM42.8154 88.4487L56.2145 80.7352V22.766L46.5135 28.3506L33.1116 36.0669V94.0362L42.8154 88.4487ZM113.97 21.165L90.876 34.4602L113.97 47.7554L137.062 34.4573L113.97 21.165ZM111.66 51.7564L98.2578 44.04L88.5568 38.4554V64.7746L101.956 72.4881L111.66 78.0756V51.7564ZM58.5193 111.067L92.3933 91.7285L109.326 82.065L86.2491 68.7785L59.6789 84.0756L35.4626 98.0169L58.5193 111.067Z" fill="#FF2D20"/>
</svg>
