<svg width="24" height="24" viewBox="0 0 24 24" fill="none" xmlns="http://www.w3.org/2000/svg">
<rect width="24" height="24" rx="12" fill="#EFE2FF"/>
<path d="M8.71199 18.16C8.71199 18.016 8.69599 17.952 8.63199 17.952L8.26399 18.128C8.26399 18.048 8.21599 18 8.13599 17.968L8.00799 17.952C7.89599 17.952 7.84799 17.968 7.68799 18.064C7.63999 17.968 7.57599 17.856 7.52799 17.76C7.11199 16.96 6.67999 15.76 6.48799 15.232C6.39199 14.96 6.29599 14.4 6.18399 13.552C6.31199 13.632 6.40799 13.664 6.45599 13.664C6.51999 13.664 6.59999 13.552 6.66399 13.328C6.69599 13.376 6.75999 13.392 6.83999 13.392C6.88799 13.392 6.95199 13.376 6.98399 13.328L7.23999 12.944L7.52799 13.04H7.54399C7.57599 13.04 7.62399 12.992 7.70399 12.944C7.78399 12.896 7.84799 12.864 7.89599 12.864L7.94399 12.88C8.19999 13.008 8.37599 13.232 8.45599 13.584C8.64799 14.4 8.82399 14.8 9.03199 14.8C9.20799 14.8 9.44799 14.592 9.70399 14.192C9.95999 13.792 10.216 13.248 10.504 12.592C10.52 12.72 10.536 12.784 10.568 12.784C10.664 12.784 10.904 12.224 11.496 11.28C12.376 9.85597 14.552 7.11997 15.112 6.73597C15.528 6.44797 15.848 6.17597 16.072 5.93597C16.04 6.09597 16.008 6.20797 16.008 6.25597C16.008 6.30397 16.04 6.31997 16.072 6.31997L16.52 6.09597V6.15997C16.52 6.23997 16.536 6.28797 16.584 6.28797C16.648 6.28797 16.904 6.03197 16.936 5.93597L16.904 6.15997L17.448 5.83997L17.32 6.12797C17.48 6.01597 17.608 5.95197 17.688 5.95197C17.768 5.95197 17.816 6.07997 17.816 6.15997C17.816 6.28797 17.704 6.46397 17.528 6.68797C17.336 6.94397 16.856 7.43997 15.416 9.08797C14.792 9.79197 12.024 13.552 11.496 14.448L10.504 16.128C10.072 16.848 9.79999 17.312 9.65599 17.488C9.51199 17.664 9.33599 17.84 9.12799 18L8.98399 17.92L8.85599 18L8.71199 18.16Z" fill="#211F31" fill-opacity="0.8"/>
</svg>
