<svg width="184" height="35" viewBox="0 0 184 35" fill="none" xmlns="http://www.w3.org/2000/svg">
<g clip-path="url(#clip0_1701_2)">
<path d="M0.123047 2.74892V1.81738H5.71221C10.5717 1.81738 13.0014 3.29231 13.0014 6.24215C13.0014 8.29149 11.7982 9.62666 9.39172 10.2477V10.4107C12.264 10.8454 13.7001 12.0254 13.7001 13.9505C13.7001 15.3478 13.0635 16.3958 11.7904 17.0944C10.5173 17.7776 8.72416 18.1191 6.41086 18.1191H0.123047V17.1876H1.52034V2.74892H0.123047ZM6.17797 10.8299H5.01357V17.1876H6.17797C7.29578 17.1876 8.22736 16.9081 8.97253 16.3492C9.71776 15.7903 10.0904 15.014 10.0904 14.0204C10.0904 13.0112 9.71776 12.2272 8.97253 11.6683C8.22736 11.1094 7.29578 10.8299 6.17797 10.8299ZM5.68892 2.74892H5.01357V9.94497H5.68892C6.79124 9.94497 7.69949 9.61893 8.41365 8.96684C9.14335 8.31476 9.50819 7.4221 9.50819 6.2887C9.50819 5.15536 9.14335 4.28593 8.41365 3.68044C7.69949 3.05942 6.79124 2.74892 5.68892 2.74892Z" fill="#2618C5"/>
<path d="M21.8277 12.7396C22.8368 12.6464 23.6131 12.2661 24.1565 11.5985C24.7154 10.9153 24.9949 10.2323 24.9949 9.54911C24.9949 8.85048 24.8396 8.31482 24.5291 7.94223C24.2341 7.56965 23.7761 7.38329 23.1551 7.38329C22.5496 7.38329 21.9674 7.81802 21.4085 8.68746C20.8496 9.5569 20.5701 10.7213 20.5701 12.1807C20.5701 13.6401 20.834 14.8123 21.3619 15.6972C21.8898 16.5821 22.6428 17.0246 23.6208 17.0246C25.1113 17.0246 26.3766 16.4424 27.4168 15.278L28.0689 15.6972C27.541 16.5355 26.8424 17.211 25.973 17.7233C25.1036 18.2201 24.1254 18.4685 23.0386 18.4685C21.1911 18.4685 19.7162 17.863 18.6139 16.652C17.5116 15.4255 16.9604 13.9506 16.9604 12.2273C16.9604 10.504 17.5427 9.06005 18.7071 7.89563C19.887 6.71574 21.5172 6.12573 23.5976 6.12573C24.9638 6.12573 26.0351 6.44403 26.8113 7.08058C27.5876 7.71713 27.9757 8.52444 27.9757 9.50256C27.9757 10.4806 27.541 11.3889 26.6716 12.2273C25.8177 13.0501 24.6844 13.4615 23.2715 13.4615C22.7903 13.4615 22.3245 13.4072 21.8742 13.2985L21.8277 12.7396Z" fill="#2618C5"/>
<path d="M43.7111 6.4751V15.5342C43.7111 15.9534 43.812 16.2872 44.0138 16.5355C44.2157 16.7684 44.5262 16.8849 44.9453 16.8849C45.3645 16.8849 45.8459 16.6598 46.3892 16.2096L46.8084 16.7684C45.5664 17.9018 44.3243 18.4685 43.0823 18.4685C41.6074 18.4685 40.6991 17.7776 40.3576 16.3959C39.5502 17.7776 38.3626 18.4685 36.7945 18.4685C35.0091 18.4685 33.6506 17.8941 32.7191 16.7452C31.7875 15.5808 31.3218 14.1058 31.3218 12.3204C31.3218 10.5194 31.8186 9.03677 32.8122 7.87236C33.8214 6.70794 35.2264 6.12573 37.0274 6.12573C38.4092 6.12573 39.4726 6.67693 40.2179 7.77921V6.4751H43.7111ZM35.5835 8.75733C35.1488 9.62672 34.9314 10.8067 34.9314 12.2971C34.9314 13.7876 35.1488 14.9675 35.5835 15.8369C36.0182 16.7064 36.6781 17.1411 37.563 17.1411C38.4635 17.1411 39.1466 16.7064 39.6124 15.8369C40.0936 14.952 40.3343 13.7721 40.3343 12.2971C40.3343 10.8222 40.0936 9.65005 39.6124 8.78061C39.1466 7.89563 38.4635 7.45317 37.563 7.45317C36.6781 7.45317 36.0182 7.88789 35.5835 8.75733Z" fill="#2618C5"/>
<path d="M53.1886 7.54632V15.5342C53.1886 16.0155 53.3361 16.3881 53.6311 16.652C53.926 16.9159 54.3375 17.0479 54.8653 17.0479C55.3932 17.0479 55.9055 16.8306 56.4023 16.3959C56.8991 15.9611 57.1476 15.3945 57.1476 14.6958V6.4751H60.6409V15.5342C60.6409 15.9534 60.7418 16.2872 60.9435 16.5355C61.1453 16.7684 61.456 16.8849 61.875 16.8849C62.294 16.8849 62.7755 16.6598 63.3189 16.2096L63.7379 16.7684C62.4964 17.9018 61.2307 18.4685 59.9421 18.4685C58.6536 18.4685 57.7995 17.8941 57.3805 16.7452C56.7749 17.3817 56.1462 17.832 55.4941 18.0959C54.8576 18.3443 54.0347 18.4685 53.0256 18.4685C52.0319 18.4685 51.2246 18.1658 50.6036 17.5603C49.9981 16.9393 49.6953 16.1009 49.6953 15.0451V7.2436C48.8414 7.46096 48.1894 7.84135 47.7392 8.38469L47.1104 7.66279C47.5606 7.197 48.1273 6.82442 48.8104 6.54492C49.5091 6.26548 50.1922 6.12573 50.8598 6.12573C51.5429 6.12573 52.1018 6.26548 52.5365 6.54492C52.9712 6.80888 53.1886 7.14266 53.1886 7.54632Z" fill="#2618C5"/>
<path d="M64.647 7.75608V6.80123H66.5569V3.44775H70.05V6.80123H72.6816V7.75608H70.05V15.5343C70.05 15.9535 70.1509 16.2873 70.3527 16.5357C70.5545 16.7686 70.8651 16.8851 71.2842 16.8851C71.7032 16.8851 72.1847 16.6599 72.7281 16.2097L73.1471 16.7686C71.9049 17.9019 70.6634 18.4687 69.4212 18.4687C67.5113 18.4687 66.5569 17.3275 66.5569 15.0453V7.75608H64.647Z" fill="#2618C5"/>
<path d="M74.3779 7.66274C74.8279 7.19695 75.3948 6.82437 76.0775 6.54487C76.7762 6.26543 77.4595 6.12568 78.1273 6.12568C78.81 6.12568 79.3689 6.26543 79.8039 6.54487C80.2384 6.80883 80.4557 7.14261 80.4557 7.54627V14.6026C80.4557 15.0994 80.611 15.4798 80.9217 15.7437C81.2324 15.9922 81.6204 16.1163 82.0859 16.1163C83.0798 16.1163 83.9259 15.6894 84.6246 14.8355C85.3388 13.9816 85.6959 12.887 85.6959 11.5518C85.6959 10.8066 85.548 10.0226 85.2534 9.19974C84.9737 9.38604 84.6166 9.47918 84.1821 9.47918C83.747 9.47918 83.3515 9.30842 82.9944 8.96685C82.6528 8.6098 82.482 8.18281 82.482 7.68601C82.482 7.18921 82.6528 6.77003 82.9944 6.42845C83.3515 6.07134 83.794 5.89282 84.322 5.89282C84.8493 5.89282 85.2998 6.09467 85.6724 6.49833C86.0605 6.88645 86.3402 7.40658 86.511 8.0586C86.7902 9.19201 86.9301 10.4496 86.9301 11.8313C86.9301 13.1975 86.7667 14.5716 86.4411 15.9533C86.1304 17.3351 85.7114 18.5228 85.1835 19.5164C84.671 20.5101 84.0887 21.3717 83.4369 22.1014C82.1013 23.5608 80.7428 24.2905 79.3614 24.2905C78.9888 24.2905 78.6781 24.2051 78.4299 24.0343C78.1966 23.879 77.9249 23.5841 77.6148 23.1494L76.4036 21.4726L77.009 20.8438C77.7547 20.9681 78.4064 21.0301 78.9653 21.0301C80.7044 21.0301 82.1248 20.479 83.2271 19.3767C84.3294 18.2744 85.199 16.4812 85.8352 13.9971C84.8728 16.6675 83.1027 18.0027 80.5256 18.0027C79.5322 18.0027 78.6862 17.6689 77.9874 17.0013C77.3042 16.3182 76.9625 15.3556 76.9625 14.1136V7.24355C76.109 7.46091 75.4567 7.8413 75.0062 8.38464L74.3779 7.66274Z" fill="#2618C5"/>
<path d="M100.548 18.4687C99.6008 18.4687 98.8167 18.1193 98.1959 17.4207C97.5906 16.722 97.2874 15.7905 97.2874 14.6261C97.2874 13.4617 97.6445 12.4758 98.3587 11.6685C99.0729 10.8612 100.09 10.4575 101.409 10.4575H101.689C100.587 8.25288 100.035 6.57613 100.035 5.42725C100.035 2.78793 101.774 1.46826 105.252 1.46826C106.339 1.46826 107.364 1.71667 108.326 2.21348C109.289 2.7103 109.77 3.30027 109.77 3.98338C109.77 4.24732 109.685 4.55006 109.514 4.89162L108.396 7.03412L107.581 6.77796V4.82176C107.581 4.12311 107.34 3.57196 106.859 3.1683C106.393 2.76464 105.819 2.5628 105.136 2.5628C104.452 2.5628 103.925 2.74135 103.552 3.09843C103.195 3.44 103.017 3.84366 103.017 4.30942C103.017 4.94597 103.343 5.9163 103.994 7.22042C104.165 7.56199 104.305 7.85697 104.413 8.10539C104.538 8.35382 104.724 8.72641 104.973 9.22321C105.221 9.70453 105.431 10.1159 105.601 10.4575H109.514V11.5055H106.114L108.233 15.8371C108.574 16.5357 109.025 16.8851 109.584 16.8851C110.143 16.8851 110.694 16.6599 111.237 16.2097L111.657 16.7686C110.414 17.9019 109.095 18.4687 107.697 18.4687C106.952 18.4687 106.323 18.2823 105.811 17.9097C105.299 17.5371 104.755 16.7298 104.181 15.4878C103.948 16.3727 103.521 17.0946 102.9 17.6536C102.279 18.197 101.495 18.4687 100.548 18.4687ZM100.897 12.2041C100.633 12.6699 100.501 13.2987 100.501 14.0904C100.501 14.8823 100.618 15.5344 100.85 16.0467C101.084 16.559 101.448 16.8152 101.945 16.8152C102.442 16.8152 102.822 16.5668 103.087 16.07C103.366 15.5732 103.514 14.9288 103.529 14.137L102.224 11.5055H102.132C101.588 11.5055 101.177 11.7383 100.897 12.2041Z" fill="#2618C5"/>
<path d="M120.728 18.1191V17.1876H122.125V2.74892H120.728V1.81738H126.177L132.838 14.9286V2.74892H131.44V1.81738H135.865V2.74892H134.468V18.1191H130.765L123.755 4.33251V17.1876H125.152V18.1191H120.728Z" fill="#2618C5"/>
<path d="M151.62 6.4751V15.5342C151.62 15.9534 151.721 16.2872 151.923 16.5355C152.124 16.7684 152.435 16.8849 152.854 16.8849C153.274 16.8849 153.755 16.6598 154.298 16.2096L154.718 16.7684C153.476 17.9018 152.233 18.4685 150.991 18.4685C149.516 18.4685 148.608 17.7776 148.267 16.3959C147.459 17.7776 146.271 18.4685 144.704 18.4685C142.918 18.4685 141.56 17.8941 140.628 16.7452C139.697 15.5808 139.231 14.1058 139.231 12.3204C139.231 10.5194 139.728 9.03677 140.721 7.87236C141.73 6.70794 143.135 6.12573 144.936 6.12573C146.318 6.12573 147.382 6.67693 148.127 7.77921V6.4751H151.62ZM143.493 8.75733C143.058 9.62672 142.84 10.8067 142.84 12.2971C142.84 13.7876 143.058 14.9675 143.493 15.8369C143.927 16.7064 144.587 17.1411 145.472 17.1411C146.372 17.1411 147.056 16.7064 147.522 15.8369C148.003 14.952 148.243 13.7721 148.243 12.2971C148.243 10.8222 148.003 9.65005 147.522 8.78061C147.056 7.89563 146.372 7.45317 145.472 7.45317C144.587 7.45317 143.927 7.88789 143.493 8.75733Z" fill="#2618C5"/>
<path d="M158.303 3.84356C157.946 3.47095 157.767 3.02847 157.767 2.51613C157.767 2.00379 157.946 1.56908 158.303 1.21199C158.676 0.839382 159.118 0.653076 159.63 0.653076C160.142 0.653076 160.578 0.839382 160.935 1.21199C161.307 1.56908 161.493 2.00379 161.493 2.51613C161.493 3.02847 161.307 3.47095 160.935 3.84356C160.578 4.20064 160.142 4.37919 159.63 4.37919C159.118 4.37919 158.676 4.20064 158.303 3.84356ZM159.188 6.12578C160.647 6.12578 161.377 6.75459 161.377 8.01215V15.5343C161.377 15.9534 161.478 16.2872 161.68 16.5356C161.882 16.7685 162.192 16.885 162.611 16.885C163.03 16.885 163.512 16.6598 164.055 16.2096L164.474 16.7685C163.232 17.9018 161.99 18.4686 160.748 18.4686C158.838 18.4686 157.883 17.3274 157.883 15.0452V7.24365C157.03 7.46101 156.378 7.84139 155.928 8.38474L155.299 7.66284C155.749 7.19705 156.316 6.82446 156.999 6.54496C157.697 6.26553 158.427 6.12578 159.188 6.12578Z" fill="#2618C5"/>
<path d="M164.484 1.84073C164.934 1.37497 165.501 1.00235 166.184 0.722898C166.883 0.44344 167.565 0.303711 168.233 0.303711C168.917 0.303711 169.475 0.44344 169.91 0.722898C170.345 0.986832 170.562 1.32063 170.562 1.72429V15.5342C170.562 15.9534 170.663 16.2872 170.865 16.5355C171.067 16.7684 171.377 16.8849 171.796 16.8849C172.215 16.8849 172.697 16.6598 173.24 16.2096L173.659 16.7684C172.417 17.9018 171.176 18.4685 169.933 18.4685C168.023 18.4685 167.069 17.3274 167.069 15.0451V1.42154C166.215 1.6389 165.563 2.01927 165.113 2.56266L164.484 1.84073Z" fill="#2618C5"/>
<path d="M177.735 8.38484C177.363 7.81042 177.177 7.29809 177.177 6.84783C177.177 6.39758 177.347 6.0017 177.689 5.66014C178.046 5.30305 178.473 5.12451 178.97 5.12451C179.467 5.12451 179.886 5.30305 180.227 5.66014C180.584 6.0017 180.763 6.41311 180.763 6.89444C180.763 7.3757 180.522 7.88804 180.041 8.43144C181.314 9.36296 182.292 10.2789 182.975 11.1795C183.658 12.0644 184 13.0968 184 14.2768C184 15.4412 183.558 16.4348 182.672 17.2576C181.787 18.065 180.53 18.4687 178.9 18.4687C178.154 18.4687 177.402 18.3056 176.641 17.9796C175.895 17.6536 175.329 17.2499 174.941 16.7686L175.476 16.2097C176.16 16.7531 176.897 17.0248 177.689 17.0248C178.481 17.0248 179.125 16.8152 179.622 16.396C180.134 15.9613 180.391 15.2937 180.391 14.3932C180.391 12.9649 179.863 11.4744 178.807 9.9219L175.29 14.3233L174.708 13.811C175.888 11.9014 176.897 10.0927 177.735 8.38484Z" fill="#2618C5"/>
<path d="M51.5889 34.3478V33.5202L52.6937 33.3363V25.8025L51.5889 25.6186V24.7844H52.6937H54.4764L57.6551 32.0423H57.6958L60.7734 24.7844H63.7489V25.6186L62.6443 25.8025V33.3363L63.7489 33.5202V34.3478H60.2042V33.5202L61.3701 33.3363V30.5645V26.5513L61.3357 26.5447L58.1298 34.0063H57.2419L53.9273 26.5579L53.8935 26.5644L53.9409 30.5645V33.3363L55.1339 33.5202V34.3478H51.5889Z" fill="#2618C5"/>
<path d="M75.0044 34.4858C74.3263 34.4858 73.741 34.3325 73.2487 34.026C72.7609 33.7151 72.3831 33.2882 72.1166 32.7452C71.85 32.1978 71.717 31.5739 71.717 30.8733V30.7287C71.717 30.0281 71.85 29.4064 72.1166 28.8634C72.3831 28.316 72.7609 27.8869 73.2487 27.576C73.741 27.2651 74.3217 27.1096 74.9906 27.1096C75.6687 27.1096 76.2517 27.2651 76.7395 27.576C77.2319 27.8869 77.6113 28.3138 77.8785 28.8568C78.145 29.3998 78.278 30.0238 78.278 30.7287V30.8733C78.278 31.5782 78.145 32.2044 77.8785 32.7518C77.6113 33.2948 77.2342 33.7195 76.7464 34.026C76.258 34.3325 75.6773 34.4858 75.0044 34.4858ZM75.0044 33.4743C75.4291 33.4743 75.784 33.3626 76.0683 33.1393C76.3577 32.9116 76.5744 32.6029 76.7194 32.2132C76.8685 31.819 76.943 31.3725 76.943 30.8733V30.7287C76.943 30.2295 76.8685 29.7851 76.7194 29.3954C76.5744 29.0013 76.3577 28.6926 76.0683 28.4693C75.7794 28.2415 75.42 28.1277 74.9906 28.1277C74.5659 28.1277 74.2088 28.2415 73.9199 28.4693C73.6304 28.6926 73.4137 29.0013 73.2693 29.3954C73.1243 29.7851 73.052 30.2295 73.052 30.7287V30.8733C73.052 31.3725 73.1243 31.819 73.2693 32.2132C73.4137 32.6029 73.6304 32.9116 73.9199 33.1393C74.2134 33.3626 74.5751 33.4743 75.0044 33.4743Z" fill="#2618C5"/>
<path d="M90.0082 34.4857C89.529 34.4857 89.1134 34.3982 88.7609 34.223C88.4084 34.0435 88.1149 33.7808 87.8799 33.4348L87.7578 34.3478H86.6056V25.1194L85.5005 24.9355V24.1013H87.9406V28.0817C88.1711 27.7664 88.456 27.5256 88.7947 27.3592C89.1381 27.1927 89.5382 27.1096 89.9945 27.1096C90.5998 27.1096 91.1151 27.2694 91.5398 27.5891C91.9692 27.9043 92.297 28.3488 92.5229 28.9224C92.7533 29.4961 92.8685 30.1638 92.8685 30.9258V31.0637C92.8685 31.7468 92.7533 32.3445 92.5229 32.8568C92.297 33.3691 91.9692 33.7698 91.5398 34.0588C91.1151 34.3434 90.6043 34.4857 90.0082 34.4857ZM89.6689 33.4348C90.2971 33.4348 90.7625 33.2181 91.0652 32.7846C91.3724 32.3511 91.5266 31.7774 91.5266 31.0637V30.9258C91.5266 30.3784 91.4584 29.8989 91.3231 29.4873C91.1873 29.0713 90.9821 28.7473 90.7064 28.5152C90.4307 28.2788 90.0804 28.1605 89.6557 28.1605C89.2441 28.1605 88.8962 28.2569 88.6119 28.4495C88.3316 28.6422 88.108 28.9005 87.9406 29.2245V32.3642C88.108 32.6926 88.3339 32.9532 88.6187 33.1458C88.9076 33.3385 89.2579 33.4348 89.6689 33.4348Z" fill="#2618C5"/>
<path d="M100.633 34.3478V33.5202L101.738 33.3363V28.259L100.633 28.0751V27.241H103.073V33.3363L104.178 33.5202V34.3478H100.633ZM101.67 25.4872V24.1013H103.073V25.4872H101.67Z" fill="#2618C5"/>
<path d="M111.834 34.3478V33.5202L112.939 33.3363V25.1194L111.834 24.9355V24.1013H114.274V33.3363L115.379 33.5202V34.3478H111.834Z" fill="#2618C5"/>
<path d="M126.343 34.4858C125.665 34.4858 125.075 34.3369 124.574 34.0391C124.072 33.737 123.684 33.3188 123.408 32.7846C123.137 32.2504 123.001 31.633 123.001 30.9323V30.6433C123.001 29.969 123.144 29.3669 123.429 28.8371C123.717 28.3029 124.099 27.8825 124.574 27.576C125.053 27.2651 125.575 27.1096 126.14 27.1096C126.8 27.1096 127.35 27.241 127.793 27.5037C128.241 27.7665 128.578 28.1365 128.803 28.6138C129.029 29.0867 129.142 29.645 129.142 30.2887V31.0966H124.384L124.364 31.1294C124.373 31.5848 124.454 31.9899 124.608 32.3446C124.766 32.6949 124.992 32.9707 125.286 33.1722C125.579 33.3736 125.932 33.4743 126.343 33.4743C126.795 33.4743 127.19 33.413 127.529 33.2904C127.873 33.1634 128.168 32.9904 128.417 32.7715L128.939 33.6122C128.677 33.8574 128.329 34.0654 127.895 34.2362C127.466 34.4026 126.949 34.4858 126.343 34.4858ZM124.425 30.085H127.807V29.9143C127.807 29.5727 127.744 29.2684 127.618 29.0013C127.495 28.7298 127.31 28.5174 127.062 28.3641C126.817 28.2065 126.51 28.1277 126.14 28.1277C125.841 28.1277 125.57 28.2131 125.326 28.3839C125.082 28.5503 124.881 28.7779 124.723 29.067C124.565 29.356 124.461 29.6844 124.411 30.0522L124.425 30.085Z" fill="#2618C5"/>
</g>
<defs>
<clipPath id="clip0_1701_2">
<rect width="184" height="35" fill="white"/>
</clipPath>
</defs>
</svg>
